<svg width="1345" height="35" viewBox="0 0 1345 35" fill="none" xmlns="http://www.w3.org/2000/svg">
<path d="M5.424 5.436L3.732 8.748L2.004 7.812L4.2 5.004L0.888 4.608L1.284 2.808L4.74 3.852L4.416 0.36H6.396L6.072 3.852L9.528 2.808L9.924 4.608L6.612 5.004L8.808 7.812L7.08 8.748L5.424 5.436ZM16.7663 27H14.4983V1.44H29.9062V3.456H16.7663V13.068H28.6823V15.12H16.7663V27ZM32.422 27V8.568H34.51L34.546 12.312C35.05 10.992 35.818 9.972 36.85 9.252C37.882 8.508 39.07 8.136 40.414 8.136C40.774 8.136 41.062 8.16 41.278 8.208V10.368C41.038 10.344 40.738 10.332 40.378 10.332C38.626 10.332 37.222 10.896 36.166 12.024C35.11 13.128 34.582 14.736 34.582 16.848V27H32.422ZM51.1274 27.432C49.3514 27.432 47.8154 27.048 46.5194 26.28C45.2474 25.488 44.2754 24.396 43.6034 23.004C42.9314 21.612 42.5954 19.992 42.5954 18.144V17.424C42.5954 15.576 42.9314 13.956 43.6034 12.564C44.2994 11.148 45.2834 10.056 46.5554 9.288C47.8514 8.52 49.3754 8.136 51.1274 8.136C53.8634 8.136 55.9154 9.024 57.2834 10.8C58.6754 12.552 59.3114 15 59.1914 18.144H44.8274V18.288C44.8754 20.592 45.4394 22.38 46.5194 23.652C47.6234 24.9 49.1594 25.524 51.1274 25.524C52.6874 25.524 53.9474 25.164 54.9074 24.444C55.8674 23.724 56.5154 22.704 56.8514 21.384H59.0474C58.6154 23.28 57.7034 24.768 56.3114 25.848C54.9434 26.904 53.2154 27.432 51.1274 27.432ZM56.9234 16.308V16.272C56.8034 14.28 56.2514 12.744 55.2674 11.664C54.2834 10.584 52.9034 10.044 51.1274 10.044C49.2794 10.044 47.8154 10.596 46.7354 11.7C45.6554 12.78 45.0434 14.316 44.8994 16.308H56.9234ZM69.5383 27.432C67.8103 27.432 66.5023 27.036 65.6143 26.244C64.7263 25.428 64.2823 24.216 64.2823 22.608V10.368H60.4663V8.568H64.2823V2.88H66.4423V8.568H71.8783V10.368H66.4423V22.284C66.4423 23.412 66.6823 24.24 67.1623 24.768C67.6663 25.296 68.5423 25.56 69.7903 25.56C70.4383 25.56 71.1943 25.44 72.0583 25.2V27.072C71.0983 27.312 70.2583 27.432 69.5383 27.432ZM82.6977 27.432C80.9217 27.432 79.3857 27.048 78.0897 26.28C76.8177 25.488 75.8457 24.396 75.1737 23.004C74.5017 21.612 74.1657 19.992 74.1657 18.144V17.424C74.1657 15.576 74.5017 13.956 75.1737 12.564C75.8697 11.148 76.8537 10.056 78.1257 9.288C79.4217 8.52 80.9457 8.136 82.6977 8.136C85.4337 8.136 87.4857 9.024 88.8537 10.8C90.2457 12.552 90.8817 15 90.7617 18.144H76.3977V18.288C76.4457 20.592 77.0097 22.38 78.0897 23.652C79.1937 24.9 80.7297 25.524 82.6977 25.524C84.2577 25.524 85.5177 25.164 86.4777 24.444C87.4377 23.724 88.0857 22.704 88.4217 21.384H90.6177C90.1857 23.28 89.2737 24.768 87.8817 25.848C86.5137 26.904 84.7857 27.432 82.6977 27.432ZM88.4937 16.308V16.272C88.3737 14.28 87.8217 12.744 86.8377 11.664C85.8537 10.584 84.4737 10.044 82.6977 10.044C80.8497 10.044 79.3857 10.596 78.3057 11.7C77.2257 12.78 76.6137 14.316 76.4697 16.308H88.4937ZM108.57 33.552C106.314 33.552 104.502 33.072 103.134 32.112C101.79 31.176 101.022 29.904 100.83 28.296H103.134C103.302 29.424 103.842 30.276 104.754 30.852C105.666 31.428 106.95 31.716 108.606 31.716C110.526 31.716 112.014 31.248 113.07 30.312C114.126 29.4 114.654 28.08 114.654 26.352V22.824C114.126 23.976 113.31 24.936 112.206 25.704C111.102 26.448 109.734 26.82 108.102 26.82C106.494 26.82 105.09 26.448 103.89 25.704C102.69 24.936 101.766 23.88 101.118 22.536C100.47 21.192 100.146 19.656 100.146 17.928V17.028C100.146 15.252 100.47 13.692 101.118 12.348C101.766 11.004 102.69 9.972 103.89 9.252C105.09 8.508 106.494 8.136 108.102 8.136C109.782 8.136 111.186 8.544 112.314 9.36C113.466 10.176 114.282 11.16 114.762 12.312L114.798 8.568H116.814V26.244C116.814 28.428 116.094 30.192 114.654 31.536C113.238 32.88 111.21 33.552 108.57 33.552ZM108.39 24.912C110.382 24.912 111.942 24.288 113.07 23.04C114.198 21.768 114.762 20.064 114.762 17.928V17.028C114.762 14.844 114.198 13.14 113.07 11.916C111.966 10.668 110.406 10.044 108.39 10.044C106.47 10.044 104.982 10.668 103.926 11.916C102.894 13.14 102.378 14.844 102.378 17.028V17.928C102.378 20.04 102.906 21.732 103.962 23.004C105.042 24.276 106.518 24.912 108.39 24.912ZM121.508 27V8.568H123.596L123.632 12.312C124.136 10.992 124.904 9.972 125.936 9.252C126.968 8.508 128.156 8.136 129.5 8.136C129.86 8.136 130.148 8.16 130.364 8.208V10.368C130.124 10.344 129.824 10.332 129.464 10.332C127.712 10.332 126.308 10.896 125.252 12.024C124.196 13.128 123.668 14.736 123.668 16.848V27H121.508ZM137.765 27.432C135.917 27.432 134.441 26.964 133.337 26.028C132.257 25.068 131.717 23.832 131.717 22.32C131.717 21.024 132.101 19.944 132.869 19.08C133.637 18.192 134.741 17.628 136.181 17.388L144.209 16.056V14.256C144.209 12.888 143.777 11.832 142.913 11.088C142.073 10.32 140.933 9.936 139.493 9.936C138.101 9.936 136.949 10.284 136.037 10.98C135.149 11.652 134.633 12.612 134.489 13.86H132.365C132.557 12.084 133.289 10.692 134.561 9.684C135.833 8.652 137.489 8.136 139.529 8.136C141.665 8.136 143.333 8.712 144.533 9.864C145.733 11.016 146.333 12.516 146.333 14.364V27H144.281L144.245 23.832C143.669 24.96 142.793 25.848 141.617 26.496C140.465 27.12 139.181 27.432 137.765 27.432ZM137.909 25.56C139.037 25.56 140.081 25.332 141.041 24.876C142.001 24.42 142.769 23.784 143.345 22.968C143.921 22.128 144.209 21.204 144.209 20.196V17.892L136.865 19.116C134.897 19.428 133.913 20.484 133.913 22.284C133.913 23.268 134.261 24.06 134.957 24.66C135.653 25.26 136.637 25.56 137.909 25.56ZM140.033 5.4H137.549L142.193 0.36H145.541L140.033 5.4ZM157.64 27.432C155.912 27.432 154.604 27.036 153.716 26.244C152.828 25.428 152.384 24.216 152.384 22.608V10.368H148.568V8.568H152.384V2.88H154.544V8.568H159.98V10.368H154.544V22.284C154.544 23.412 154.784 24.24 155.264 24.768C155.768 25.296 156.644 25.56 157.892 25.56C158.54 25.56 159.296 25.44 160.16 25.2V27.072C159.2 27.312 158.36 27.432 157.64 27.432ZM165.75 27H163.59V8.568H165.75V27ZM165.786 5.4H163.518V0.36H165.786V5.4ZM176.889 27.432C174.777 27.432 173.049 26.928 171.705 25.92C170.361 24.888 169.581 23.4 169.365 21.456H171.525C171.741 22.848 172.317 23.892 173.253 24.588C174.189 25.26 175.425 25.596 176.961 25.596C178.449 25.596 179.625 25.296 180.489 24.696C181.353 24.096 181.785 23.22 181.785 22.068C181.785 21.06 181.377 20.304 180.561 19.8C179.745 19.296 178.389 18.876 176.493 18.54C174.333 18.156 172.725 17.592 171.669 16.848C170.637 16.08 170.121 14.904 170.121 13.32C170.121 11.784 170.721 10.536 171.921 9.576C173.145 8.616 174.717 8.136 176.637 8.136C178.605 8.136 180.201 8.616 181.425 9.576C182.649 10.512 183.369 11.868 183.585 13.644H181.425C181.233 12.42 180.717 11.496 179.877 10.872C179.037 10.248 177.957 9.936 176.637 9.936C175.341 9.936 174.285 10.236 173.469 10.836C172.653 11.436 172.245 12.24 172.245 13.248C172.245 14.256 172.617 15.012 173.361 15.516C174.129 15.996 175.437 16.392 177.285 16.704C179.517 17.088 181.185 17.664 182.289 18.432C183.417 19.176 183.981 20.328 183.981 21.888C183.981 23.592 183.333 24.948 182.037 25.956C180.741 26.94 179.025 27.432 176.889 27.432ZM227.401 5.436L225.709 8.748L223.981 7.812L226.177 5.004L222.865 4.608L223.261 2.808L226.717 3.852L226.393 0.36H228.373L228.049 3.852L231.505 2.808L231.901 4.608L228.589 5.004L230.785 7.812L229.057 8.748L227.401 5.436ZM253.305 27H250.857L247.941 19.476H235.917L233.001 27H230.661L240.777 1.44H243.225L253.305 27ZM241.929 4.068L236.709 17.46H247.149L241.929 4.068ZM262.389 27.432C260.277 27.432 258.549 26.928 257.205 25.92C255.861 24.888 255.081 23.4 254.865 21.456H257.025C257.241 22.848 257.817 23.892 258.753 24.588C259.689 25.26 260.925 25.596 262.461 25.596C263.949 25.596 265.125 25.296 265.989 24.696C266.853 24.096 267.285 23.22 267.285 22.068C267.285 21.06 266.877 20.304 266.061 19.8C265.245 19.296 263.889 18.876 261.993 18.54C259.833 18.156 258.225 17.592 257.169 16.848C256.137 16.08 255.621 14.904 255.621 13.32C255.621 11.784 256.221 10.536 257.421 9.576C258.645 8.616 260.217 8.136 262.137 8.136C264.105 8.136 265.701 8.616 266.925 9.576C268.149 10.512 268.869 11.868 269.085 13.644H266.925C266.733 12.42 266.217 11.496 265.377 10.872C264.537 10.248 263.457 9.936 262.137 9.936C260.841 9.936 259.785 10.236 258.969 10.836C258.153 11.436 257.745 12.24 257.745 13.248C257.745 14.256 258.117 15.012 258.861 15.516C259.629 15.996 260.937 16.392 262.785 16.704C265.017 17.088 266.685 17.664 267.789 18.432C268.917 19.176 269.481 20.328 269.481 21.888C269.481 23.592 268.833 24.948 267.537 25.956C266.241 26.94 264.525 27.432 262.389 27.432ZM278.807 27.432C276.695 27.432 274.967 26.928 273.623 25.92C272.279 24.888 271.499 23.4 271.283 21.456H273.443C273.659 22.848 274.235 23.892 275.171 24.588C276.107 25.26 277.343 25.596 278.879 25.596C280.367 25.596 281.543 25.296 282.407 24.696C283.271 24.096 283.703 23.22 283.703 22.068C283.703 21.06 283.295 20.304 282.479 19.8C281.663 19.296 280.307 18.876 278.411 18.54C276.251 18.156 274.643 17.592 273.587 16.848C272.555 16.08 272.039 14.904 272.039 13.32C272.039 11.784 272.639 10.536 273.839 9.576C275.063 8.616 276.635 8.136 278.555 8.136C280.523 8.136 282.119 8.616 283.343 9.576C284.567 10.512 285.287 11.868 285.503 13.644H283.343C283.151 12.42 282.635 11.496 281.795 10.872C280.955 10.248 279.875 9.936 278.555 9.936C277.259 9.936 276.203 10.236 275.387 10.836C274.571 11.436 274.163 12.24 274.163 13.248C274.163 14.256 274.535 15.012 275.279 15.516C276.047 15.996 277.355 16.392 279.203 16.704C281.435 17.088 283.103 17.664 284.207 18.432C285.335 19.176 285.899 20.328 285.899 21.888C285.899 23.592 285.251 24.948 283.955 25.956C282.659 26.94 280.943 27.432 278.807 27.432ZM291.82 27H289.66V8.568H291.82V27ZM291.856 5.4H289.588V0.36H291.856V5.4ZM302.96 27.432C300.848 27.432 299.12 26.928 297.776 25.92C296.432 24.888 295.652 23.4 295.436 21.456H297.596C297.812 22.848 298.388 23.892 299.324 24.588C300.26 25.26 301.496 25.596 303.032 25.596C304.52 25.596 305.696 25.296 306.56 24.696C307.424 24.096 307.856 23.22 307.856 22.068C307.856 21.06 307.448 20.304 306.632 19.8C305.816 19.296 304.46 18.876 302.564 18.54C300.404 18.156 298.796 17.592 297.74 16.848C296.708 16.08 296.192 14.904 296.192 13.32C296.192 11.784 296.792 10.536 297.992 9.576C299.216 8.616 300.788 8.136 302.708 8.136C304.676 8.136 306.272 8.616 307.496 9.576C308.72 10.512 309.44 11.868 309.656 13.644H307.496C307.304 12.42 306.788 11.496 305.948 10.872C305.108 10.248 304.028 9.936 302.708 9.936C301.412 9.936 300.356 10.236 299.54 10.836C298.724 11.436 298.316 12.24 298.316 13.248C298.316 14.256 298.688 15.012 299.432 15.516C300.2 15.996 301.508 16.392 303.356 16.704C305.588 17.088 307.256 17.664 308.36 18.432C309.488 19.176 310.052 20.328 310.052 21.888C310.052 23.592 309.404 24.948 308.108 25.956C306.812 26.94 305.096 27.432 302.96 27.432ZM320.413 27.432C318.685 27.432 317.377 27.036 316.489 26.244C315.601 25.428 315.157 24.216 315.157 22.608V10.368H311.341V8.568H315.157V2.88H317.317V8.568H322.753V10.368H317.317V22.284C317.317 23.412 317.557 24.24 318.037 24.768C318.541 25.296 319.417 25.56 320.665 25.56C321.313 25.56 322.069 25.44 322.933 25.2V27.072C321.973 27.312 321.133 27.432 320.413 27.432ZM333.573 27.432C331.797 27.432 330.261 27.048 328.965 26.28C327.693 25.488 326.721 24.396 326.049 23.004C325.377 21.612 325.041 19.992 325.041 18.144V17.424C325.041 15.576 325.377 13.956 326.049 12.564C326.745 11.148 327.729 10.056 329.001 9.288C330.297 8.52 331.821 8.136 333.573 8.136C336.309 8.136 338.361 9.024 339.729 10.8C341.121 12.552 341.757 15 341.637 18.144H327.273V18.288C327.321 20.592 327.885 22.38 328.965 23.652C330.069 24.9 331.605 25.524 333.573 25.524C335.133 25.524 336.393 25.164 337.353 24.444C338.313 23.724 338.961 22.704 339.297 21.384H341.493C341.061 23.28 340.149 24.768 338.757 25.848C337.389 26.904 335.661 27.432 333.573 27.432ZM339.369 16.308V16.272C339.249 14.28 338.697 12.744 337.713 11.664C336.729 10.584 335.349 10.044 333.573 10.044C331.725 10.044 330.261 10.596 329.181 11.7C328.101 12.78 327.489 14.316 327.345 16.308H339.369ZM331.017 5.4H328.893L332.241 0.36H334.905L338.253 5.4H336.129L333.573 1.944L331.017 5.4ZM345.242 27V8.568H347.33L347.402 11.916C347.906 10.764 348.674 9.852 349.706 9.18C350.762 8.484 352.022 8.136 353.486 8.136C355.598 8.136 357.194 8.748 358.274 9.972C359.378 11.172 359.93 12.864 359.93 15.048V27H357.806V15.552C357.806 13.752 357.41 12.384 356.618 11.448C355.826 10.512 354.626 10.044 353.018 10.044C351.314 10.044 349.946 10.632 348.914 11.808C347.906 12.96 347.402 14.52 347.402 16.488V27H345.242ZM371.961 27.432C370.209 27.432 368.697 27.048 367.425 26.28C366.177 25.488 365.217 24.396 364.545 23.004C363.873 21.612 363.537 19.992 363.537 18.144V17.424C363.537 14.616 364.281 12.372 365.769 10.692C367.281 8.988 369.357 8.136 371.997 8.136C374.133 8.136 375.861 8.712 377.181 9.864C378.525 10.992 379.329 12.516 379.593 14.436H377.433C377.169 13.068 376.569 12 375.633 11.232C374.697 10.44 373.473 10.044 371.961 10.044C369.993 10.044 368.469 10.692 367.389 11.988C366.309 13.284 365.769 15.096 365.769 17.424V18.144C365.769 20.472 366.309 22.284 367.389 23.58C368.469 24.876 369.993 25.524 371.961 25.524C373.497 25.524 374.733 25.128 375.669 24.336C376.629 23.52 377.253 22.404 377.541 20.988H379.737C379.377 22.98 378.513 24.552 377.145 25.704C375.801 26.856 374.073 27.432 371.961 27.432ZM385.336 27H383.176V8.568H385.336V27ZM385.372 5.4H383.104V0.36H385.372V5.4ZM395.143 27.432C393.295 27.432 391.819 26.964 390.715 26.028C389.635 25.068 389.095 23.832 389.095 22.32C389.095 21.024 389.479 19.944 390.247 19.08C391.015 18.192 392.119 17.628 393.559 17.388L401.587 16.056V14.256C401.587 12.888 401.155 11.832 400.291 11.088C399.451 10.32 398.311 9.936 396.871 9.936C395.479 9.936 394.327 10.284 393.415 10.98C392.527 11.652 392.011 12.612 391.867 13.86H389.743C389.935 12.084 390.667 10.692 391.939 9.684C393.211 8.652 394.867 8.136 396.907 8.136C399.043 8.136 400.711 8.712 401.911 9.864C403.111 11.016 403.711 12.516 403.711 14.364V27H401.659L401.623 23.832C401.047 24.96 400.171 25.848 398.995 26.496C397.843 27.12 396.559 27.432 395.143 27.432ZM395.287 25.56C396.415 25.56 397.459 25.332 398.419 24.876C399.379 24.42 400.147 23.784 400.723 22.968C401.299 22.128 401.587 21.204 401.587 20.196V17.892L394.243 19.116C392.275 19.428 391.291 20.484 391.291 22.284C391.291 23.268 391.639 24.06 392.335 24.66C393.031 25.26 394.015 25.56 395.287 25.56ZM422.085 27.432C420.357 27.432 419.049 27.036 418.161 26.244C417.273 25.428 416.829 24.216 416.829 22.608V10.368H413.013V8.568H416.829V2.88H418.989V8.568H424.425V10.368H418.989V22.284C418.989 23.412 419.229 24.24 419.709 24.768C420.213 25.296 421.089 25.56 422.337 25.56C422.985 25.56 423.741 25.44 424.605 25.2V27.072C423.645 27.312 422.805 27.432 422.085 27.432ZM435.245 27.432C433.469 27.432 431.933 27.048 430.637 26.28C429.365 25.488 428.393 24.396 427.721 23.004C427.049 21.612 426.713 19.992 426.713 18.144V17.424C426.713 15.576 427.049 13.956 427.721 12.564C428.417 11.148 429.401 10.056 430.673 9.288C431.969 8.52 433.493 8.136 435.245 8.136C437.981 8.136 440.033 9.024 441.401 10.8C442.793 12.552 443.429 15 443.309 18.144H428.945V18.288C428.993 20.592 429.557 22.38 430.637 23.652C431.741 24.9 433.277 25.524 435.245 25.524C436.805 25.524 438.065 25.164 439.025 24.444C439.985 23.724 440.633 22.704 440.969 21.384H443.165C442.733 23.28 441.821 24.768 440.429 25.848C439.061 26.904 437.333 27.432 435.245 27.432ZM441.041 16.308V16.272C440.921 14.28 440.369 12.744 439.385 11.664C438.401 10.584 437.021 10.044 435.245 10.044C433.397 10.044 431.933 10.596 430.853 11.7C429.773 12.78 429.161 14.316 429.017 16.308H441.041ZM435.749 5.4H433.265L437.909 0.36H441.257L435.749 5.4ZM454.402 27.432C452.65 27.432 451.138 27.048 449.866 26.28C448.618 25.488 447.658 24.396 446.986 23.004C446.314 21.612 445.978 19.992 445.978 18.144V17.424C445.978 14.616 446.722 12.372 448.21 10.692C449.722 8.988 451.798 8.136 454.438 8.136C456.574 8.136 458.302 8.712 459.622 9.864C460.966 10.992 461.77 12.516 462.034 14.436H459.874C459.61 13.068 459.01 12 458.074 11.232C457.138 10.44 455.914 10.044 454.402 10.044C452.434 10.044 450.91 10.692 449.83 11.988C448.75 13.284 448.21 15.096 448.21 17.424V18.144C448.21 20.472 448.75 22.284 449.83 23.58C450.91 24.876 452.434 25.524 454.402 25.524C455.938 25.524 457.174 25.128 458.11 24.336C459.07 23.52 459.694 22.404 459.982 20.988H462.178C461.818 22.98 460.954 24.552 459.586 25.704C458.242 26.856 456.514 27.432 454.402 27.432ZM465.617 27V8.568H467.705L467.777 11.916C468.281 10.764 469.049 9.852 470.081 9.18C471.137 8.484 472.397 8.136 473.861 8.136C475.973 8.136 477.569 8.748 478.649 9.972C479.753 11.172 480.305 12.864 480.305 15.048V27H478.181V15.552C478.181 13.752 477.785 12.384 476.993 11.448C476.201 10.512 475.001 10.044 473.393 10.044C471.689 10.044 470.321 10.632 469.289 11.808C468.281 12.96 467.777 14.52 467.777 16.488V27H465.617ZM487.008 27H484.848V8.568H487.008V27ZM487.044 5.4H484.776V0.36H487.044V5.4ZM499.191 27.432C497.439 27.432 495.927 27.048 494.655 26.28C493.407 25.488 492.447 24.396 491.775 23.004C491.103 21.612 490.767 19.992 490.767 18.144V17.424C490.767 14.616 491.511 12.372 492.999 10.692C494.511 8.988 496.587 8.136 499.227 8.136C501.363 8.136 503.091 8.712 504.411 9.864C505.755 10.992 506.559 12.516 506.823 14.436H504.663C504.399 13.068 503.799 12 502.863 11.232C501.927 10.44 500.703 10.044 499.191 10.044C497.223 10.044 495.699 10.692 494.619 11.988C493.539 13.284 492.999 15.096 492.999 17.424V18.144C492.999 20.472 493.539 22.284 494.619 23.58C495.699 24.876 497.223 25.524 499.191 25.524C500.727 25.524 501.963 25.128 502.899 24.336C503.859 23.52 504.483 22.404 504.771 20.988H506.967C506.607 22.98 505.743 24.552 504.375 25.704C503.031 26.856 501.303 27.432 499.191 27.432ZM515.518 27.432C513.67 27.432 512.194 26.964 511.09 26.028C510.01 25.068 509.47 23.832 509.47 22.32C509.47 21.024 509.854 19.944 510.622 19.08C511.39 18.192 512.494 17.628 513.934 17.388L521.962 16.056V14.256C521.962 12.888 521.53 11.832 520.666 11.088C519.826 10.32 518.686 9.936 517.246 9.936C515.854 9.936 514.702 10.284 513.79 10.98C512.902 11.652 512.386 12.612 512.242 13.86H510.118C510.31 12.084 511.042 10.692 512.314 9.684C513.586 8.652 515.242 8.136 517.282 8.136C519.418 8.136 521.086 8.712 522.286 9.864C523.486 11.016 524.086 12.516 524.086 14.364V27H522.034L521.998 23.832C521.422 24.96 520.546 25.848 519.37 26.496C518.218 27.12 516.934 27.432 515.518 27.432ZM515.662 25.56C516.79 25.56 517.834 25.332 518.794 24.876C519.754 24.42 520.522 23.784 521.098 22.968C521.674 22.128 521.962 21.204 521.962 20.196V17.892L514.618 19.116C512.65 19.428 511.666 20.484 511.666 22.284C511.666 23.268 512.014 24.06 512.71 24.66C513.406 25.26 514.39 25.56 515.662 25.56ZM568.276 5.436L566.584 8.748L564.856 7.812L567.052 5.004L563.74 4.608L564.136 2.808L567.592 3.852L567.268 0.36H569.248L568.924 3.852L572.38 2.808L572.776 4.608L569.464 5.004L571.66 7.812L569.932 8.748L568.276 5.436ZM581.101 4.86C579.781 6.18 578.041 7.164 575.881 7.812V5.688C577.081 5.352 578.185 4.812 579.193 4.068C580.201 3.324 580.993 2.448 581.569 1.44H583.261V27H581.101V4.86ZM600.702 27.432C598.854 27.432 597.378 26.964 596.274 26.028C595.194 25.068 594.654 23.832 594.654 22.32C594.654 21.024 595.038 19.944 595.806 19.08C596.574 18.192 597.678 17.628 599.118 17.388L607.146 16.056V14.256C607.146 12.888 606.714 11.832 605.85 11.088C605.01 10.32 603.87 9.936 602.43 9.936C601.038 9.936 599.886 10.284 598.974 10.98C598.086 11.652 597.57 12.612 597.426 13.86H595.302C595.494 12.084 596.226 10.692 597.498 9.684C598.77 8.652 600.426 8.136 602.466 8.136C604.602 8.136 606.27 8.712 607.47 9.864C608.67 11.016 609.27 12.516 609.27 14.364V27H607.218L607.182 23.832C606.606 24.96 605.73 25.848 604.554 26.496C603.402 27.12 602.118 27.432 600.702 27.432ZM600.846 25.56C601.974 25.56 603.018 25.332 603.978 24.876C604.938 24.42 605.706 23.784 606.282 22.968C606.858 22.128 607.146 21.204 607.146 20.196V17.892L599.802 19.116C597.834 19.428 596.85 20.484 596.85 22.284C596.85 23.268 597.198 24.06 597.894 24.66C598.59 25.26 599.574 25.56 600.846 25.56ZM613.801 27V8.568H615.889L615.961 11.916C616.465 10.764 617.233 9.852 618.265 9.18C619.321 8.484 620.581 8.136 622.045 8.136C624.157 8.136 625.753 8.748 626.833 9.972C627.937 11.172 628.489 12.864 628.489 15.048V27H626.365V15.552C626.365 13.752 625.969 12.384 625.177 11.448C624.385 10.512 623.185 10.044 621.577 10.044C619.873 10.044 618.505 10.632 617.473 11.808C616.465 12.96 615.961 14.52 615.961 16.488V27H613.801ZM640.663 27.432C638.935 27.432 637.423 27.06 636.127 26.316C634.831 25.548 633.835 24.468 633.139 23.076C632.443 21.66 632.095 20.016 632.095 18.144V17.424C632.095 15.552 632.443 13.92 633.139 12.528C633.835 11.112 634.831 10.032 636.127 9.288C637.423 8.52 638.935 8.136 640.663 8.136C642.391 8.136 643.891 8.52 645.163 9.288C646.459 10.032 647.455 11.112 648.151 12.528C648.847 13.92 649.195 15.552 649.195 17.424V18.144C649.195 20.016 648.847 21.66 648.151 23.076C647.455 24.468 646.459 25.548 645.163 26.316C643.891 27.06 642.391 27.432 640.663 27.432ZM640.663 25.524C642.679 25.524 644.227 24.876 645.307 23.58C646.411 22.284 646.963 20.472 646.963 18.144V17.424C646.963 15.096 646.411 13.284 645.307 11.988C644.227 10.692 642.679 10.044 640.663 10.044C638.647 10.044 637.087 10.692 635.983 11.988C634.879 13.284 634.327 15.096 634.327 17.424V18.144C634.327 20.472 634.879 22.284 635.983 23.58C637.087 24.876 638.647 25.524 640.663 25.524ZM666.665 27.432C665.081 27.432 663.689 27.048 662.489 26.28C661.289 25.512 660.353 24.432 659.681 23.04C659.033 21.624 658.709 19.992 658.709 18.144V17.424C658.709 15.576 659.033 13.956 659.681 12.564C660.329 11.148 661.253 10.056 662.453 9.288C663.653 8.52 665.057 8.136 666.665 8.136C668.297 8.136 669.665 8.508 670.769 9.252C671.873 9.996 672.689 10.932 673.217 12.06V0.36H675.377V27H673.361L673.325 23.256C672.845 24.432 672.029 25.428 670.877 26.244C669.749 27.036 668.345 27.432 666.665 27.432ZM666.953 25.524C668.969 25.524 670.529 24.876 671.633 23.58C672.761 22.26 673.325 20.448 673.325 18.144V17.424C673.325 15.12 672.761 13.32 671.633 12.024C670.529 10.704 668.969 10.044 666.953 10.044C665.057 10.044 663.581 10.704 662.525 12.024C661.469 13.32 660.941 15.12 660.941 17.424V18.144C660.941 20.448 661.457 22.26 662.489 23.58C663.545 24.876 665.033 25.524 666.953 25.524ZM687.666 27.432C685.89 27.432 684.354 27.048 683.058 26.28C681.786 25.488 680.814 24.396 680.142 23.004C679.47 21.612 679.134 19.992 679.134 18.144V17.424C679.134 15.576 679.47 13.956 680.142 12.564C680.838 11.148 681.822 10.056 683.094 9.288C684.39 8.52 685.914 8.136 687.666 8.136C690.402 8.136 692.454 9.024 693.822 10.8C695.214 12.552 695.85 15 695.73 18.144H681.366V18.288C681.414 20.592 681.978 22.38 683.058 23.652C684.162 24.9 685.698 25.524 687.666 25.524C689.226 25.524 690.486 25.164 691.446 24.444C692.406 23.724 693.054 22.704 693.39 21.384H695.586C695.154 23.28 694.242 24.768 692.85 25.848C691.482 26.904 689.754 27.432 687.666 27.432ZM693.462 16.308V16.272C693.342 14.28 692.79 12.744 691.806 11.664C690.822 10.584 689.442 10.044 687.666 10.044C685.818 10.044 684.354 10.596 683.274 11.7C682.194 12.78 681.582 14.316 681.438 16.308H693.462ZM713.539 33.552C711.283 33.552 709.471 33.072 708.103 32.112C706.759 31.176 705.991 29.904 705.799 28.296H708.103C708.271 29.424 708.811 30.276 709.723 30.852C710.635 31.428 711.919 31.716 713.575 31.716C715.495 31.716 716.983 31.248 718.039 30.312C719.095 29.4 719.623 28.08 719.623 26.352V22.824C719.095 23.976 718.279 24.936 717.175 25.704C716.071 26.448 714.703 26.82 713.071 26.82C711.463 26.82 710.059 26.448 708.859 25.704C707.659 24.936 706.735 23.88 706.087 22.536C705.439 21.192 705.115 19.656 705.115 17.928V17.028C705.115 15.252 705.439 13.692 706.087 12.348C706.735 11.004 707.659 9.972 708.859 9.252C710.059 8.508 711.463 8.136 713.071 8.136C714.751 8.136 716.155 8.544 717.283 9.36C718.435 10.176 719.251 11.16 719.731 12.312L719.767 8.568H721.783V26.244C721.783 28.428 721.063 30.192 719.623 31.536C718.207 32.88 716.179 33.552 713.539 33.552ZM713.359 24.912C715.351 24.912 716.911 24.288 718.039 23.04C719.167 21.768 719.731 20.064 719.731 17.928V17.028C719.731 14.844 719.167 13.14 718.039 11.916C716.935 10.668 715.375 10.044 713.359 10.044C711.439 10.044 709.951 10.668 708.895 11.916C707.863 13.14 707.347 14.844 707.347 17.028V17.928C707.347 20.04 707.875 21.732 708.931 23.004C710.011 24.276 711.487 24.912 713.359 24.912ZM731.589 27.432C729.741 27.432 728.265 26.964 727.161 26.028C726.081 25.068 725.541 23.832 725.541 22.32C725.541 21.024 725.925 19.944 726.693 19.08C727.461 18.192 728.565 17.628 730.005 17.388L738.033 16.056V14.256C738.033 12.888 737.601 11.832 736.737 11.088C735.897 10.32 734.757 9.936 733.317 9.936C731.925 9.936 730.773 10.284 729.861 10.98C728.973 11.652 728.457 12.612 728.313 13.86H726.189C726.381 12.084 727.113 10.692 728.385 9.684C729.657 8.652 731.313 8.136 733.353 8.136C735.489 8.136 737.157 8.712 738.357 9.864C739.557 11.016 740.157 12.516 740.157 14.364V27H738.105L738.069 23.832C737.493 24.96 736.617 25.848 735.441 26.496C734.289 27.12 733.005 27.432 731.589 27.432ZM731.733 25.56C732.861 25.56 733.905 25.332 734.865 24.876C735.825 24.42 736.593 23.784 737.169 22.968C737.745 22.128 738.033 21.204 738.033 20.196V17.892L730.689 19.116C728.721 19.428 727.737 20.484 727.737 22.284C727.737 23.268 728.085 24.06 728.781 24.66C729.477 25.26 730.461 25.56 731.733 25.56ZM744.688 27V8.568H746.776L746.812 12.312C747.316 10.992 748.084 9.972 749.116 9.252C750.148 8.508 751.336 8.136 752.68 8.136C753.04 8.136 753.328 8.16 753.544 8.208V10.368C753.304 10.344 753.004 10.332 752.644 10.332C750.892 10.332 749.488 10.896 748.432 12.024C747.376 13.128 746.848 14.736 746.848 16.848V27H744.688ZM760.944 27.432C759.096 27.432 757.62 26.964 756.516 26.028C755.436 25.068 754.896 23.832 754.896 22.32C754.896 21.024 755.28 19.944 756.048 19.08C756.816 18.192 757.92 17.628 759.36 17.388L767.388 16.056V14.256C767.388 12.888 766.956 11.832 766.092 11.088C765.252 10.32 764.112 9.936 762.672 9.936C761.28 9.936 760.128 10.284 759.216 10.98C758.328 11.652 757.812 12.612 757.668 13.86H755.544C755.736 12.084 756.468 10.692 757.74 9.684C759.012 8.652 760.668 8.136 762.708 8.136C764.844 8.136 766.512 8.712 767.712 9.864C768.912 11.016 769.512 12.516 769.512 14.364V27H767.46L767.424 23.832C766.848 24.96 765.972 25.848 764.796 26.496C763.644 27.12 762.36 27.432 760.944 27.432ZM761.088 25.56C762.216 25.56 763.26 25.332 764.22 24.876C765.18 24.42 765.948 23.784 766.524 22.968C767.1 22.128 767.388 21.204 767.388 20.196V17.892L760.044 19.116C758.076 19.428 757.092 20.484 757.092 22.284C757.092 23.268 757.44 24.06 758.136 24.66C758.832 25.26 759.816 25.56 761.088 25.56ZM774.043 27V8.568H776.131L776.203 11.916C776.707 10.764 777.475 9.852 778.507 9.18C779.563 8.484 780.823 8.136 782.287 8.136C784.399 8.136 785.995 8.748 787.075 9.972C788.179 11.172 788.731 12.864 788.731 15.048V27H786.607V15.552C786.607 13.752 786.211 12.384 785.419 11.448C784.627 10.512 783.427 10.044 781.819 10.044C780.115 10.044 778.747 10.632 777.715 11.808C776.707 12.96 776.203 14.52 776.203 16.488V27H774.043ZM800.05 27.432C798.322 27.432 797.014 27.036 796.126 26.244C795.238 25.428 794.794 24.216 794.794 22.608V10.368H790.978V8.568H794.794V2.88H796.954V8.568H802.39V10.368H796.954V22.284C796.954 23.412 797.194 24.24 797.674 24.768C798.178 25.296 799.054 25.56 800.302 25.56C800.95 25.56 801.706 25.44 802.57 25.2V27.072C801.61 27.312 800.77 27.432 800.05 27.432ZM808.16 27H806V8.568H808.16V27ZM808.196 5.4H805.928V0.36H808.196V5.4ZM817.968 27.432C816.12 27.432 814.644 26.964 813.54 26.028C812.46 25.068 811.92 23.832 811.92 22.32C811.92 21.024 812.304 19.944 813.072 19.08C813.84 18.192 814.944 17.628 816.384 17.388L824.412 16.056V14.256C824.412 12.888 823.98 11.832 823.116 11.088C822.276 10.32 821.136 9.936 819.696 9.936C818.304 9.936 817.152 10.284 816.24 10.98C815.352 11.652 814.836 12.612 814.692 13.86H812.568C812.76 12.084 813.492 10.692 814.764 9.684C816.036 8.652 817.692 8.136 819.732 8.136C821.868 8.136 823.536 8.712 824.736 9.864C825.936 11.016 826.536 12.516 826.536 14.364V27H824.484L824.448 23.832C823.872 24.96 822.996 25.848 821.82 26.496C820.668 27.12 819.384 27.432 817.968 27.432ZM818.112 25.56C819.24 25.56 820.284 25.332 821.244 24.876C822.204 24.42 822.972 23.784 823.548 22.968C824.124 22.128 824.412 21.204 824.412 20.196V17.892L817.068 19.116C815.1 19.428 814.116 20.484 814.116 22.284C814.116 23.268 814.464 24.06 815.16 24.66C815.856 25.26 816.84 25.56 818.112 25.56ZM870.725 5.436L869.033 8.748L867.305 7.812L869.501 5.004L866.189 4.608L866.585 2.808L870.041 3.852L869.717 0.36H871.697L871.373 3.852L874.829 2.808L875.225 4.608L871.913 5.004L874.109 7.812L872.381 8.748L870.725 5.436ZM883.55 4.86C882.23 6.18 880.49 7.164 878.33 7.812V5.688C879.53 5.352 880.634 4.812 881.642 4.068C882.65 3.324 883.442 2.448 884.018 1.44H885.71V27H883.55V4.86ZM900.036 27.432C897.156 27.432 894.9 26.328 893.268 24.12C891.636 21.888 890.82 18.708 890.82 14.58V13.86C890.82 9.756 891.636 6.588 893.268 4.356C894.924 2.124 897.18 1.008 900.036 1.008C902.94 1.008 905.208 2.124 906.84 4.356C908.472 6.588 909.288 9.756 909.288 13.86V14.58C909.288 18.732 908.472 21.912 906.84 24.12C905.208 26.328 902.94 27.432 900.036 27.432ZM900.036 25.452C902.22 25.452 903.912 24.564 905.112 22.788C906.336 20.988 906.948 18.348 906.948 14.868V13.536C906.948 10.08 906.336 7.464 905.112 5.688C903.912 3.888 902.22 2.988 900.036 2.988C897.876 2.988 896.184 3.888 894.96 5.688C893.76 7.464 893.16 10.08 893.16 13.536V14.868C893.16 18.348 893.76 20.988 894.96 22.788C896.184 24.564 897.876 25.452 900.036 25.452ZM927.208 27.432C925.624 27.432 924.232 27.048 923.032 26.28C921.832 25.512 920.896 24.432 920.224 23.04C919.576 21.624 919.252 19.992 919.252 18.144V17.424C919.252 15.576 919.576 13.956 920.224 12.564C920.872 11.148 921.796 10.056 922.996 9.288C924.196 8.52 925.6 8.136 927.208 8.136C928.84 8.136 930.208 8.508 931.312 9.252C932.416 9.996 933.232 10.932 933.76 12.06V0.36H935.92V27H933.904L933.868 23.256C933.388 24.432 932.572 25.428 931.42 26.244C930.292 27.036 928.888 27.432 927.208 27.432ZM927.496 25.524C929.512 25.524 931.072 24.876 932.176 23.58C933.304 22.26 933.868 20.448 933.868 18.144V17.424C933.868 15.12 933.304 13.32 932.176 12.024C931.072 10.704 929.512 10.044 927.496 10.044C925.6 10.044 924.124 10.704 923.068 12.024C922.012 13.32 921.484 15.12 921.484 17.424V18.144C921.484 20.448 922 22.26 923.032 23.58C924.088 24.876 925.576 25.524 927.496 25.524ZM942.773 27H940.613V8.568H942.773V27ZM942.809 5.4H940.541V0.36H942.809V5.4ZM952.581 27.432C950.733 27.432 949.257 26.964 948.153 26.028C947.073 25.068 946.533 23.832 946.533 22.32C946.533 21.024 946.917 19.944 947.685 19.08C948.453 18.192 949.557 17.628 950.997 17.388L959.025 16.056V14.256C959.025 12.888 958.593 11.832 957.729 11.088C956.889 10.32 955.749 9.936 954.309 9.936C952.917 9.936 951.765 10.284 950.853 10.98C949.965 11.652 949.449 12.612 949.305 13.86H947.181C947.373 12.084 948.105 10.692 949.377 9.684C950.649 8.652 952.305 8.136 954.345 8.136C956.481 8.136 958.149 8.712 959.349 9.864C960.549 11.016 961.149 12.516 961.149 14.364V27H959.097L959.061 23.832C958.485 24.96 957.609 25.848 956.433 26.496C955.281 27.12 953.997 27.432 952.581 27.432ZM952.725 25.56C953.853 25.56 954.897 25.332 955.857 24.876C956.817 24.42 957.585 23.784 958.161 22.968C958.737 22.128 959.025 21.204 959.025 20.196V17.892L951.681 19.116C949.713 19.428 948.729 20.484 948.729 22.284C948.729 23.268 949.077 24.06 949.773 24.66C950.469 25.26 951.453 25.56 952.725 25.56ZM972.124 27.432C970.012 27.432 968.284 26.928 966.94 25.92C965.596 24.888 964.816 23.4 964.6 21.456H966.76C966.976 22.848 967.552 23.892 968.488 24.588C969.424 25.26 970.66 25.596 972.196 25.596C973.684 25.596 974.86 25.296 975.724 24.696C976.588 24.096 977.02 23.22 977.02 22.068C977.02 21.06 976.612 20.304 975.796 19.8C974.98 19.296 973.624 18.876 971.728 18.54C969.568 18.156 967.96 17.592 966.904 16.848C965.872 16.08 965.356 14.904 965.356 13.32C965.356 11.784 965.956 10.536 967.156 9.576C968.38 8.616 969.952 8.136 971.872 8.136C973.84 8.136 975.436 8.616 976.66 9.576C977.884 10.512 978.604 11.868 978.82 13.644H976.66C976.468 12.42 975.952 11.496 975.112 10.872C974.272 10.248 973.192 9.936 971.872 9.936C970.576 9.936 969.52 10.236 968.704 10.836C967.888 11.436 967.48 12.24 967.48 13.248C967.48 14.256 967.852 15.012 968.596 15.516C969.364 15.996 970.672 16.392 972.52 16.704C974.752 17.088 976.42 17.664 977.524 18.432C978.652 19.176 979.216 20.328 979.216 21.888C979.216 23.592 978.568 24.948 977.272 25.956C975.976 26.94 974.26 27.432 972.124 27.432ZM989.692 33.12V8.568H991.708L991.78 12.312C992.26 11.16 993.064 10.176 994.192 9.36C995.32 8.544 996.736 8.136 998.44 8.136C1000.02 8.136 1001.42 8.52 1002.62 9.288C1003.82 10.056 1004.74 11.148 1005.39 12.564C1006.04 13.956 1006.36 15.576 1006.36 17.424V18.144C1006.36 19.992 1006.04 21.624 1005.39 23.04C1004.74 24.432 1003.82 25.512 1002.62 26.28C1001.42 27.048 1000.01 27.432 998.404 27.432C996.772 27.432 995.404 27.06 994.3 26.316C993.196 25.548 992.38 24.6 991.852 23.472V33.12H989.692ZM998.08 25.524C1000 25.524 1001.49 24.876 1002.54 23.58C1003.6 22.26 1004.13 20.448 1004.13 18.144V17.424C1004.13 15.096 1003.6 13.284 1002.54 11.988C1001.51 10.692 1000.04 10.044 998.116 10.044C996.1 10.044 994.54 10.692 993.436 11.988C992.332 13.284 991.78 15.096 991.78 17.424V18.144C991.78 20.448 992.332 22.26 993.436 23.58C994.54 24.876 996.088 25.524 998.08 25.524ZM1015.19 27.432C1013.35 27.432 1011.87 26.964 1010.77 26.028C1009.69 25.068 1009.15 23.832 1009.15 22.32C1009.15 21.024 1009.53 19.944 1010.3 19.08C1011.07 18.192 1012.17 17.628 1013.61 17.388L1021.64 16.056V14.256C1021.64 12.888 1021.21 11.832 1020.34 11.088C1019.5 10.32 1018.36 9.936 1016.92 9.936C1015.53 9.936 1014.38 10.284 1013.47 10.98C1012.58 11.652 1012.06 12.612 1011.92 13.86H1009.79C1009.99 12.084 1010.72 10.692 1011.99 9.684C1013.26 8.652 1014.92 8.136 1016.96 8.136C1019.09 8.136 1020.76 8.712 1021.96 9.864C1023.16 11.016 1023.76 12.516 1023.76 14.364V27H1021.71L1021.67 23.832C1021.1 24.96 1020.22 25.848 1019.05 26.496C1017.89 27.12 1016.61 27.432 1015.19 27.432ZM1015.34 25.56C1016.47 25.56 1017.51 25.332 1018.47 24.876C1019.43 24.42 1020.2 23.784 1020.77 22.968C1021.35 22.128 1021.64 21.204 1021.64 20.196V17.892L1014.29 19.116C1012.33 19.428 1011.34 20.484 1011.34 22.284C1011.34 23.268 1011.69 24.06 1012.39 24.66C1013.08 25.26 1014.07 25.56 1015.34 25.56ZM1028.29 27V8.568H1030.38L1030.42 12.312C1030.92 10.992 1031.69 9.972 1032.72 9.252C1033.75 8.508 1034.94 8.136 1036.29 8.136C1036.65 8.136 1036.93 8.16 1037.15 8.208V10.368C1036.91 10.344 1036.61 10.332 1036.25 10.332C1034.5 10.332 1033.09 10.896 1032.04 12.024C1030.98 13.128 1030.45 14.736 1030.45 16.848V27H1028.29ZM1044.55 27.432C1042.7 27.432 1041.23 26.964 1040.12 26.028C1039.04 25.068 1038.5 23.832 1038.5 22.32C1038.5 21.024 1038.89 19.944 1039.65 19.08C1040.42 18.192 1041.53 17.628 1042.97 17.388L1050.99 16.056V14.256C1050.99 12.888 1050.56 11.832 1049.7 11.088C1048.86 10.32 1047.72 9.936 1046.28 9.936C1044.89 9.936 1043.73 10.284 1042.82 10.98C1041.93 11.652 1041.42 12.612 1041.27 13.86H1039.15C1039.34 12.084 1040.07 10.692 1041.35 9.684C1042.62 8.652 1044.27 8.136 1046.31 8.136C1048.45 8.136 1050.12 8.712 1051.32 9.864C1052.52 11.016 1053.12 12.516 1053.12 14.364V27H1051.07L1051.03 23.832C1050.45 24.96 1049.58 25.848 1048.4 26.496C1047.25 27.12 1045.97 27.432 1044.55 27.432ZM1044.69 25.56C1045.82 25.56 1046.87 25.332 1047.83 24.876C1048.79 24.42 1049.55 23.784 1050.13 22.968C1050.71 22.128 1050.99 21.204 1050.99 20.196V17.892L1043.65 19.116C1041.68 19.428 1040.7 20.484 1040.7 22.284C1040.7 23.268 1041.05 24.06 1041.74 24.66C1042.44 25.26 1043.42 25.56 1044.69 25.56ZM1071.38 27.432C1069.8 27.432 1068.41 27.048 1067.21 26.28C1066.01 25.512 1065.07 24.432 1064.4 23.04C1063.75 21.624 1063.43 19.992 1063.43 18.144V17.424C1063.43 15.576 1063.75 13.956 1064.4 12.564C1065.05 11.148 1065.97 10.056 1067.17 9.288C1068.37 8.52 1069.78 8.136 1071.38 8.136C1073.02 8.136 1074.38 8.508 1075.49 9.252C1076.59 9.996 1077.41 10.932 1077.94 12.06V0.36H1080.1V27H1078.08L1078.04 23.256C1077.56 24.432 1076.75 25.428 1075.6 26.244C1074.47 27.036 1073.06 27.432 1071.38 27.432ZM1071.67 25.524C1073.69 25.524 1075.25 24.876 1076.35 23.58C1077.48 22.26 1078.04 20.448 1078.04 18.144V17.424C1078.04 15.12 1077.48 13.32 1076.35 12.024C1075.25 10.704 1073.69 10.044 1071.67 10.044C1069.78 10.044 1068.3 10.704 1067.24 12.024C1066.19 13.32 1065.66 15.12 1065.66 17.424V18.144C1065.66 20.448 1066.18 22.26 1067.21 23.58C1068.26 24.876 1069.75 25.524 1071.67 25.524ZM1092.39 27.432C1090.61 27.432 1089.07 27.048 1087.78 26.28C1086.51 25.488 1085.53 24.396 1084.86 23.004C1084.19 21.612 1083.85 19.992 1083.85 18.144V17.424C1083.85 15.576 1084.19 13.956 1084.86 12.564C1085.56 11.148 1086.54 10.056 1087.81 9.288C1089.11 8.52 1090.63 8.136 1092.39 8.136C1095.12 8.136 1097.17 9.024 1098.54 10.8C1099.93 12.552 1100.57 15 1100.45 18.144H1086.09V18.288C1086.13 20.592 1086.7 22.38 1087.78 23.652C1088.88 24.9 1090.42 25.524 1092.39 25.524C1093.95 25.524 1095.21 25.164 1096.17 24.444C1097.13 23.724 1097.77 22.704 1098.11 21.384H1100.31C1099.87 23.28 1098.96 24.768 1097.57 25.848C1096.2 26.904 1094.47 27.432 1092.39 27.432ZM1098.18 16.308V16.272C1098.06 14.28 1097.51 12.744 1096.53 11.664C1095.54 10.584 1094.16 10.044 1092.39 10.044C1090.54 10.044 1089.07 10.596 1087.99 11.7C1086.91 12.78 1086.3 14.316 1086.16 16.308H1098.18ZM1111.09 27H1108.75L1101.62 8.568H1103.96L1109.97 24.624L1115.84 8.568H1118.11L1111.09 27ZM1128.1 27.432C1126.38 27.432 1124.86 27.06 1123.57 26.316C1122.27 25.548 1121.28 24.468 1120.58 23.076C1119.88 21.66 1119.54 20.016 1119.54 18.144V17.424C1119.54 15.552 1119.88 13.92 1120.58 12.528C1121.28 11.112 1122.27 10.032 1123.57 9.288C1124.86 8.52 1126.38 8.136 1128.1 8.136C1129.83 8.136 1131.33 8.52 1132.6 9.288C1133.9 10.032 1134.9 11.112 1135.59 12.528C1136.29 13.92 1136.64 15.552 1136.64 17.424V18.144C1136.64 20.016 1136.29 21.66 1135.59 23.076C1134.9 24.468 1133.9 25.548 1132.6 26.316C1131.33 27.06 1129.83 27.432 1128.1 27.432ZM1128.1 25.524C1130.12 25.524 1131.67 24.876 1132.75 23.58C1133.85 22.284 1134.4 20.472 1134.4 18.144V17.424C1134.4 15.096 1133.85 13.284 1132.75 11.988C1131.67 10.692 1130.12 10.044 1128.1 10.044C1126.09 10.044 1124.53 10.692 1123.42 11.988C1122.32 13.284 1121.77 15.096 1121.77 17.424V18.144C1121.77 20.472 1122.32 22.284 1123.42 23.58C1124.53 24.876 1126.09 25.524 1128.1 25.524ZM1142.53 27H1140.37V0.36H1142.53V27ZM1153.42 27.432C1151.35 27.432 1149.78 26.832 1148.7 25.632C1147.62 24.408 1147.08 22.692 1147.08 20.484V8.568H1149.24V20.088C1149.24 23.712 1150.81 25.524 1153.96 25.524C1155.66 25.524 1156.98 24.936 1157.92 23.76C1158.88 22.56 1159.36 20.976 1159.36 19.008V8.568H1161.52V27H1159.39L1159.36 23.688C1158.85 24.816 1158.07 25.728 1157.02 26.424C1155.99 27.096 1154.79 27.432 1153.42 27.432ZM1181.44 20.988C1181.1 22.86 1180.31 24.372 1179.06 25.524C1177.84 26.652 1176.27 27.276 1174.35 27.396L1173.52 29.016H1173.77C1174.73 29.016 1175.52 29.232 1176.15 29.664C1176.77 30.096 1177.08 30.816 1177.08 31.824C1177.08 32.832 1176.71 33.6 1175.97 34.128C1175.22 34.68 1174.26 34.956 1173.09 34.956C1172.06 34.956 1171.26 34.788 1170.71 34.452V32.94C1171.29 33.228 1171.96 33.372 1172.73 33.372C1173.45 33.372 1173.96 33.24 1174.28 32.976C1174.61 32.736 1174.78 32.352 1174.78 31.824C1174.78 30.816 1174.18 30.312 1172.98 30.312C1172.38 30.312 1171.89 30.36 1171.5 30.456V29.232L1172.48 27.36C1170.2 27.096 1168.42 26.136 1167.15 24.48C1165.88 22.824 1165.24 20.712 1165.24 18.144V17.424C1165.24 14.616 1165.98 12.372 1167.47 10.692C1168.98 8.988 1171.06 8.136 1173.7 8.136C1175.84 8.136 1177.56 8.712 1178.88 9.864C1180.23 10.992 1181.03 12.516 1181.3 14.436H1179.14C1178.87 13.068 1178.27 12 1177.34 11.232C1176.4 10.44 1175.18 10.044 1173.66 10.044C1171.7 10.044 1170.17 10.692 1169.09 11.988C1168.01 13.284 1167.47 15.096 1167.47 17.424V18.144C1167.47 20.472 1168.01 22.284 1169.09 23.58C1170.17 24.876 1171.7 25.524 1173.66 25.524C1175.2 25.524 1176.44 25.128 1177.37 24.336C1178.33 23.52 1178.96 22.404 1179.24 20.988H1181.44ZM1189.99 27.432C1188.14 27.432 1186.67 26.964 1185.56 26.028C1184.48 25.068 1183.94 23.832 1183.94 22.32C1183.94 21.024 1184.33 19.944 1185.1 19.08C1185.86 18.192 1186.97 17.628 1188.41 17.388L1196.44 16.056V14.256C1196.44 12.888 1196 11.832 1195.14 11.088C1194.3 10.32 1193.16 9.936 1191.72 9.936C1190.33 9.936 1189.18 10.284 1188.26 10.98C1187.38 11.652 1186.86 12.612 1186.72 13.86H1184.59C1184.78 12.084 1185.52 10.692 1186.79 9.684C1188.06 8.652 1189.72 8.136 1191.76 8.136C1193.89 8.136 1195.56 8.712 1196.76 9.864C1197.96 11.016 1198.56 12.516 1198.56 14.364V27H1196.51L1196.47 23.832C1195.9 24.96 1195.02 25.848 1193.84 26.496C1192.69 27.12 1191.41 27.432 1189.99 27.432ZM1190.14 25.56C1191.26 25.56 1192.31 25.332 1193.27 24.876C1194.23 24.42 1195 23.784 1195.57 22.968C1196.15 22.128 1196.44 21.204 1196.44 20.196V17.892L1189.09 19.116C1187.12 19.428 1186.14 20.484 1186.14 22.284C1186.14 23.268 1186.49 24.06 1187.18 24.66C1187.88 25.26 1188.86 25.56 1190.14 25.56ZM1193.92 4.896C1193.46 4.896 1193.04 4.812 1192.66 4.644C1192.3 4.452 1191.89 4.176 1191.43 3.816C1191.07 3.528 1190.76 3.324 1190.5 3.204C1190.23 3.06 1189.96 2.988 1189.67 2.988C1189.26 2.988 1188.96 3.144 1188.77 3.456C1188.6 3.744 1188.5 4.212 1188.48 4.86H1186.64C1186.72 3.612 1186.99 2.676 1187.47 2.052C1187.95 1.428 1188.66 1.116 1189.6 1.116C1190.05 1.116 1190.45 1.212 1190.78 1.404C1191.14 1.572 1191.56 1.836 1192.04 2.196C1192.43 2.484 1192.75 2.7 1193.02 2.844C1193.28 2.988 1193.54 3.06 1193.81 3.06C1194.24 3.06 1194.54 2.916 1194.71 2.628C1194.88 2.316 1194.98 1.824 1195.03 1.152H1196.83C1196.76 2.424 1196.48 3.372 1196 3.996C1195.55 4.596 1194.85 4.896 1193.92 4.896ZM1210.72 27.432C1208.99 27.432 1207.48 27.06 1206.19 26.316C1204.89 25.548 1203.89 24.468 1203.2 23.076C1202.5 21.66 1202.15 20.016 1202.15 18.144V17.424C1202.15 15.552 1202.5 13.92 1203.2 12.528C1203.89 11.112 1204.89 10.032 1206.19 9.288C1207.48 8.52 1208.99 8.136 1210.72 8.136C1212.45 8.136 1213.95 8.52 1215.22 9.288C1216.52 10.032 1217.51 11.112 1218.21 12.528C1218.91 13.92 1219.25 15.552 1219.25 17.424V18.144C1219.25 20.016 1218.91 21.66 1218.21 23.076C1217.51 24.468 1216.52 25.548 1215.22 26.316C1213.95 27.06 1212.45 27.432 1210.72 27.432ZM1210.72 25.524C1212.74 25.524 1214.29 24.876 1215.37 23.58C1216.47 22.284 1217.02 20.472 1217.02 18.144V17.424C1217.02 15.096 1216.47 13.284 1215.37 11.988C1214.29 10.692 1212.74 10.044 1210.72 10.044C1208.71 10.044 1207.15 10.692 1206.04 11.988C1204.94 13.284 1204.39 15.096 1204.39 17.424V18.144C1204.39 20.472 1204.94 22.284 1206.04 23.58C1207.15 24.876 1208.71 25.524 1210.72 25.524ZM1237.19 33.552C1234.94 33.552 1233.12 33.072 1231.76 32.112C1230.41 31.176 1229.64 29.904 1229.45 28.296H1231.76C1231.92 29.424 1232.46 30.276 1233.38 30.852C1234.29 31.428 1235.57 31.716 1237.23 31.716C1239.15 31.716 1240.64 31.248 1241.69 30.312C1242.75 29.4 1243.28 28.08 1243.28 26.352V22.824C1242.75 23.976 1241.93 24.936 1240.83 25.704C1239.72 26.448 1238.36 26.82 1236.72 26.82C1235.12 26.82 1233.71 26.448 1232.51 25.704C1231.31 24.936 1230.39 23.88 1229.74 22.536C1229.09 21.192 1228.77 19.656 1228.77 17.928V17.028C1228.77 15.252 1229.09 13.692 1229.74 12.348C1230.39 11.004 1231.31 9.972 1232.51 9.252C1233.71 8.508 1235.12 8.136 1236.72 8.136C1238.4 8.136 1239.81 8.544 1240.94 9.36C1242.09 10.176 1242.9 11.16 1243.38 12.312L1243.42 8.568H1245.44V26.244C1245.44 28.428 1244.72 30.192 1243.28 31.536C1241.86 32.88 1239.83 33.552 1237.19 33.552ZM1237.01 24.912C1239 24.912 1240.56 24.288 1241.69 23.04C1242.82 21.768 1243.38 20.064 1243.38 17.928V17.028C1243.38 14.844 1242.82 13.14 1241.69 11.916C1240.59 10.668 1239.03 10.044 1237.01 10.044C1235.09 10.044 1233.6 10.668 1232.55 11.916C1231.52 13.14 1231 14.844 1231 17.028V17.928C1231 20.04 1231.53 21.732 1232.58 23.004C1233.66 24.276 1235.14 24.912 1237.01 24.912ZM1250.13 27V8.568H1252.22L1252.25 12.312C1252.76 10.992 1253.53 9.972 1254.56 9.252C1255.59 8.508 1256.78 8.136 1258.12 8.136C1258.48 8.136 1258.77 8.16 1258.99 8.208V10.368C1258.75 10.344 1258.45 10.332 1258.09 10.332C1256.33 10.332 1254.93 10.896 1253.87 12.024C1252.82 13.128 1252.29 14.736 1252.29 16.848V27H1250.13ZM1266.39 27.432C1264.54 27.432 1263.06 26.964 1261.96 26.028C1260.88 25.068 1260.34 23.832 1260.34 22.32C1260.34 21.024 1260.72 19.944 1261.49 19.08C1262.26 18.192 1263.36 17.628 1264.8 17.388L1272.83 16.056V14.256C1272.83 12.888 1272.4 11.832 1271.53 11.088C1270.69 10.32 1269.55 9.936 1268.11 9.936C1266.72 9.936 1265.57 10.284 1264.66 10.98C1263.77 11.652 1263.25 12.612 1263.11 13.86H1260.99C1261.18 12.084 1261.91 10.692 1263.18 9.684C1264.45 8.652 1266.11 8.136 1268.15 8.136C1270.29 8.136 1271.95 8.712 1273.15 9.864C1274.35 11.016 1274.95 12.516 1274.95 14.364V27H1272.9L1272.87 23.832C1272.29 24.96 1271.41 25.848 1270.24 26.496C1269.09 27.12 1267.8 27.432 1266.39 27.432ZM1266.53 25.56C1267.66 25.56 1268.7 25.332 1269.66 24.876C1270.62 24.42 1271.39 23.784 1271.97 22.968C1272.54 22.128 1272.83 21.204 1272.83 20.196V17.892L1265.49 19.116C1263.52 19.428 1262.53 20.484 1262.53 22.284C1262.53 23.268 1262.88 24.06 1263.58 24.66C1264.27 25.26 1265.26 25.56 1266.53 25.56ZM1286.26 27.432C1284.53 27.432 1283.22 27.036 1282.34 26.244C1281.45 25.428 1281 24.216 1281 22.608V10.368H1277.19V8.568H1281V2.88H1283.16V8.568H1288.6V10.368H1283.16V22.284C1283.16 23.412 1283.4 24.24 1283.88 24.768C1284.39 25.296 1285.26 25.56 1286.51 25.56C1287.16 25.56 1287.92 25.44 1288.78 25.2V27.072C1287.82 27.312 1286.98 27.432 1286.26 27.432ZM1298.4 27.432C1296.34 27.432 1294.77 26.832 1293.69 25.632C1292.61 24.408 1292.07 22.692 1292.07 20.484V8.568H1294.23V20.088C1294.23 23.712 1295.8 25.524 1298.94 25.524C1300.65 25.524 1301.97 24.936 1302.9 23.76C1303.86 22.56 1304.34 20.976 1304.34 19.008V8.568H1306.5V27H1304.38L1304.34 23.688C1303.84 24.816 1303.06 25.728 1302 26.424C1300.97 27.096 1299.77 27.432 1298.4 27.432ZM1313.32 27H1311.16V8.568H1313.32V27ZM1313.36 5.4H1311.09V0.36H1313.36V5.4ZM1325.14 27.432C1323.42 27.432 1322.11 27.036 1321.22 26.244C1320.33 25.428 1319.89 24.216 1319.89 22.608V10.368H1316.07V8.568H1319.89V2.88H1322.05V8.568H1327.48V10.368H1322.05V22.284C1322.05 23.412 1322.29 24.24 1322.77 24.768C1323.27 25.296 1324.15 25.56 1325.4 25.56C1326.04 25.56 1326.8 25.44 1327.66 25.2V27.072C1326.7 27.312 1325.86 27.432 1325.14 27.432ZM1336.07 27.432C1334.22 27.432 1332.74 26.964 1331.64 26.028C1330.56 25.068 1330.02 23.832 1330.02 22.32C1330.02 21.024 1330.4 19.944 1331.17 19.08C1331.94 18.192 1333.04 17.628 1334.48 17.388L1342.51 16.056V14.256C1342.51 12.888 1342.08 11.832 1341.21 11.088C1340.37 10.32 1339.23 9.936 1337.79 9.936C1336.4 9.936 1335.25 10.284 1334.34 10.98C1333.45 11.652 1332.93 12.612 1332.79 13.86H1330.67C1330.86 12.084 1331.59 10.692 1332.86 9.684C1334.13 8.652 1335.79 8.136 1337.83 8.136C1339.97 8.136 1341.63 8.712 1342.83 9.864C1344.03 11.016 1344.63 12.516 1344.63 14.364V27H1342.58L1342.55 23.832C1341.97 24.96 1341.09 25.848 1339.92 26.496C1338.77 27.12 1337.48 27.432 1336.07 27.432ZM1336.21 25.56C1337.34 25.56 1338.38 25.332 1339.34 24.876C1340.3 24.42 1341.07 23.784 1341.65 22.968C1342.22 22.128 1342.51 21.204 1342.51 20.196V17.892L1335.17 19.116C1333.2 19.428 1332.21 20.484 1332.21 22.284C1332.21 23.268 1332.56 24.06 1333.26 24.66C1333.95 25.26 1334.94 25.56 1336.21 25.56Z" fill="black"/>
</svg>
