<svg width="1251" height="60" viewBox="0 0 1251 60" fill="none" xmlns="http://www.w3.org/2000/svg">
<path d="M42.032 26.24C42.032 30.6773 41.2 34.5813 39.536 37.952C37.872 41.3227 35.5253 43.9467 32.496 45.824L37.68 53.44H33.072L29.04 47.488C26.6933 48.3413 24.1547 48.768 21.424 48.768C17.2853 48.768 13.6587 47.8293 10.544 45.952C7.42933 44.0747 5.01867 41.4507 3.312 38.08C1.60533 34.6667 0.752 30.72 0.752 26.24V24.32C0.752 19.84 1.60533 15.9147 3.312 12.544C5.01867 9.13067 7.42933 6.48533 10.544 4.608C13.6587 2.73066 17.2853 1.792 21.424 1.792C25.5627 1.792 29.1893 2.73066 32.304 4.608C35.4187 6.48533 37.808 9.13067 39.472 12.544C41.1787 15.9147 42.032 19.84 42.032 24.32V26.24ZM30.32 42.624C32.752 41.088 34.608 38.912 35.888 36.096C37.2107 33.2373 37.872 29.952 37.872 26.24V24.32C37.872 20.5653 37.2107 17.28 35.888 14.464C34.5653 11.6053 32.6667 9.408 30.192 7.872C27.7173 6.29333 24.7947 5.504 21.424 5.504C18.0533 5.504 15.1307 6.29333 12.656 7.872C10.1813 9.408 8.28267 11.6053 6.96 14.464C5.63733 17.28 4.976 20.5653 4.976 24.32V26.24C4.976 29.9947 5.63733 33.3013 6.96 36.16C8.28267 38.976 10.1813 41.1733 12.656 42.752C15.1307 44.288 18.0533 45.056 21.424 45.056C23.4293 45.056 25.2427 44.7787 26.864 44.224L20.848 35.392H25.456L30.32 42.624ZM59.9805 48.768C56.3112 48.768 53.5165 47.7013 51.5965 45.568C49.6765 43.392 48.7165 40.3413 48.7165 36.416V15.232H52.5565V35.712C52.5565 42.1547 55.3512 45.376 60.9405 45.376C63.9698 45.376 66.3165 44.3307 67.9805 42.24C69.6872 40.1067 70.5405 37.2907 70.5405 33.792V15.232H74.3805V48H70.6045L70.5405 42.112C69.6445 44.1173 68.2578 45.7387 66.3805 46.976C64.5458 48.1707 62.4125 48.768 59.9805 48.768ZM96.164 48.768C93.0067 48.768 90.276 48.0853 87.972 46.72C85.7107 45.312 83.9827 43.3707 82.788 40.896C81.5933 38.4213 80.996 35.5413 80.996 32.256V30.976C80.996 27.6907 81.5933 24.8107 82.788 22.336C84.0253 19.8187 85.7747 17.8773 88.036 16.512C90.34 15.1467 93.0493 14.464 96.164 14.464C101.028 14.464 104.676 16.0427 107.108 19.2C109.583 22.3147 110.713 26.6667 110.5 32.256H84.964V32.512C85.0493 36.608 86.052 39.7867 87.972 42.048C89.9347 44.2667 92.6653 45.376 96.164 45.376C98.9373 45.376 101.177 44.736 102.884 43.456C104.591 42.176 105.743 40.3627 106.34 38.016H110.244C109.476 41.3867 107.855 44.032 105.38 45.952C102.948 47.8293 99.876 48.768 96.164 48.768ZM106.468 28.992V28.928C106.255 25.3867 105.273 22.656 103.524 20.736C101.775 18.816 99.3213 17.856 96.164 17.856C92.8787 17.856 90.276 18.8373 88.356 20.8C86.436 22.72 85.348 25.4507 85.092 28.992H106.468ZM116.91 48V15.232H120.622L120.686 21.056C121.539 19.0933 122.841 17.5147 124.59 16.32C126.382 15.0827 128.558 14.464 131.118 14.464C133.678 14.464 135.811 15.104 137.518 16.384C139.225 17.6213 140.419 19.3707 141.102 21.632C142.126 19.456 143.555 17.728 145.39 16.448C147.267 15.1253 149.507 14.464 152.11 14.464C155.651 14.464 158.339 15.5307 160.174 17.664C162.051 19.7547 162.99 22.7413 162.99 26.624V48H159.15V27.392C159.15 24.2773 158.467 21.9093 157.102 20.288C155.779 18.6667 153.817 17.856 151.214 17.856C148.227 17.856 145.902 18.88 144.238 20.928C142.617 22.976 141.806 25.7707 141.806 29.312V48H137.966V27.456C137.966 21.056 135.385 17.856 130.222 17.856C127.235 17.856 124.91 18.9013 123.246 20.992C121.582 23.04 120.75 25.856 120.75 29.44V48H116.91ZM196.222 48.768C193.107 48.768 190.419 48.0853 188.158 46.72C185.939 45.312 184.233 43.3707 183.038 40.896C181.843 38.4213 181.246 35.5413 181.246 32.256V30.976C181.246 25.984 182.569 21.9947 185.214 19.008C187.902 15.9787 191.593 14.464 196.286 14.464C200.083 14.464 203.155 15.488 205.502 17.536C207.891 19.5413 209.321 22.2507 209.79 25.664H205.95C205.481 23.232 204.414 21.3333 202.75 19.968C201.086 18.56 198.91 17.856 196.222 17.856C192.723 17.856 190.014 19.008 188.094 21.312C186.174 23.616 185.214 26.8373 185.214 30.976V32.256C185.214 36.3947 186.174 39.616 188.094 41.92C190.014 44.224 192.723 45.376 196.222 45.376C198.953 45.376 201.15 44.672 202.814 43.264C204.521 41.8133 205.63 39.8293 206.142 37.312H210.046C209.406 40.8533 207.87 43.648 205.438 45.696C203.049 47.744 199.977 48.768 196.222 48.768ZM229.666 48.768C226.594 48.768 223.906 48.1067 221.602 46.784C219.298 45.4187 217.527 43.4987 216.29 41.024C215.052 38.5067 214.434 35.584 214.434 32.256V30.976C214.434 27.648 215.052 24.7467 216.29 22.272C217.527 19.7547 219.298 17.8347 221.602 16.512C223.906 15.1467 226.594 14.464 229.666 14.464C232.738 14.464 235.404 15.1467 237.666 16.512C239.97 17.8347 241.74 19.7547 242.978 22.272C244.215 24.7467 244.833 27.648 244.833 30.976V32.256C244.833 35.584 244.215 38.5067 242.978 41.024C241.74 43.4987 239.97 45.4187 237.666 46.784C235.404 48.1067 232.738 48.768 229.666 48.768ZM229.666 45.376C233.25 45.376 236.002 44.224 237.922 41.92C239.884 39.616 240.866 36.3947 240.866 32.256V30.976C240.866 26.8373 239.884 23.616 237.922 21.312C236.002 19.008 233.25 17.856 229.666 17.856C226.082 17.856 223.308 19.008 221.345 21.312C219.383 23.616 218.402 26.8373 218.402 30.976V32.256C218.402 36.3947 219.383 39.616 221.345 41.92C223.308 44.224 226.082 45.376 229.666 45.376ZM251.473 48V15.232H255.185L255.249 21.056C256.102 19.0933 257.403 17.5147 259.153 16.32C260.945 15.0827 263.121 14.464 265.681 14.464C268.241 14.464 270.374 15.104 272.081 16.384C273.787 17.6213 274.982 19.3707 275.665 21.632C276.689 19.456 278.118 17.728 279.953 16.448C281.83 15.1253 284.07 14.464 286.673 14.464C290.214 14.464 292.902 15.5307 294.737 17.664C296.614 19.7547 297.553 22.7413 297.553 26.624V48H293.713V27.392C293.713 24.2773 293.03 21.9093 291.665 20.288C290.342 18.6667 288.379 17.856 285.777 17.856C282.79 17.856 280.465 18.88 278.801 20.928C277.179 22.976 276.369 25.7707 276.369 29.312V48H272.529V27.456C272.529 21.056 269.947 17.856 264.785 17.856C261.798 17.856 259.473 18.9013 257.809 20.992C256.145 23.04 255.312 25.856 255.312 29.44V48H251.473ZM305.535 58.88V15.232H309.119L309.247 21.888C310.1 19.84 311.53 18.0907 313.535 16.64C315.54 15.1893 318.058 14.464 321.087 14.464C323.903 14.464 326.378 15.1467 328.511 16.512C330.644 17.8773 332.287 19.8187 333.439 22.336C334.591 24.8107 335.167 27.6907 335.167 30.976V32.256C335.167 35.5413 334.591 38.4427 333.439 40.96C332.287 43.4347 330.644 45.3547 328.511 46.72C326.378 48.0853 323.882 48.768 321.023 48.768C318.122 48.768 315.69 48.1067 313.727 46.784C311.764 45.4187 310.314 43.7333 309.375 41.728V58.88H305.535ZM320.447 45.376C323.86 45.376 326.506 44.224 328.383 41.92C330.26 39.5733 331.199 36.352 331.199 32.256V30.976C331.199 26.8373 330.26 23.616 328.383 21.312C326.548 19.008 323.924 17.856 320.511 17.856C316.927 17.856 314.154 19.008 312.191 21.312C310.228 23.616 309.247 26.8373 309.247 30.976V32.256C309.247 36.352 310.228 39.5733 312.191 41.92C314.154 44.224 316.906 45.376 320.447 45.376ZM341.848 48V15.232H345.56L345.624 21.888C346.52 19.5413 347.885 17.728 349.72 16.448C351.554 15.1253 353.666 14.464 356.056 14.464C356.696 14.464 357.208 14.5067 357.592 14.592V18.432C357.165 18.3893 356.632 18.368 355.992 18.368C352.877 18.368 350.381 19.3707 348.504 21.376C346.626 23.3387 345.688 26.1973 345.688 29.952V48H341.848ZM375.166 48.768C372.094 48.768 369.406 48.1067 367.102 46.784C364.798 45.4187 363.027 43.4987 361.79 41.024C360.552 38.5067 359.934 35.584 359.934 32.256V30.976C359.934 27.648 360.552 24.7467 361.79 22.272C363.027 19.7547 364.798 17.8347 367.102 16.512C369.406 15.1467 372.094 14.464 375.166 14.464C378.238 14.464 380.904 15.1467 383.166 16.512C385.47 17.8347 387.24 19.7547 388.478 22.272C389.715 24.7467 390.333 27.648 390.333 30.976V32.256C390.333 35.584 389.715 38.5067 388.478 41.024C387.24 43.4987 385.47 45.4187 383.166 46.784C380.904 48.1067 378.238 48.768 375.166 48.768ZM375.166 45.376C378.75 45.376 381.502 44.224 383.422 41.92C385.384 39.616 386.366 36.3947 386.366 32.256V30.976C386.366 26.8373 385.384 23.616 383.422 21.312C381.502 19.008 378.75 17.856 375.166 17.856C371.582 17.856 368.808 19.008 366.845 21.312C364.883 23.616 363.902 26.8373 363.902 30.976V32.256C363.902 36.3947 364.883 39.616 366.845 41.92C368.808 44.224 371.582 45.376 375.166 45.376ZM407.606 48.768C403.936 48.768 401.142 47.7013 399.222 45.568C397.302 43.392 396.342 40.3413 396.342 36.416V15.232H400.182V35.712C400.182 42.1547 402.976 45.376 408.566 45.376C411.595 45.376 413.942 44.3307 415.606 42.24C417.312 40.1067 418.166 37.2907 418.166 33.792V15.232H422.006V48H418.23L418.166 42.112C417.27 44.1173 415.883 45.7387 414.006 46.976C412.171 48.1707 410.038 48.768 407.606 48.768Z" fill="black"/>
<path d="M451.631 48H441.263V2.56H456.623L466.607 34.304L476.655 2.56H491.183V48H481.007V15.104L470.575 48H462.191L451.631 14.976V48ZM508.647 48.832C504.764 48.832 501.863 47.7013 499.943 45.44C498.066 43.1787 497.127 40.0213 497.127 35.968V14.912H507.431V33.984C507.431 38.4213 509.116 40.64 512.487 40.64C514.322 40.64 515.772 39.9787 516.839 38.656C517.906 37.3333 518.439 35.4133 518.439 32.896V14.912H528.743V48H518.887L518.631 43.264C517.607 44.8427 516.242 46.1653 514.535 47.232C512.828 48.2987 510.866 48.832 508.647 48.832ZM544.998 48H534.758V0.639999H544.998V48ZM567.069 48.832C562.93 48.832 559.858 47.936 557.853 46.144C555.848 44.3093 554.845 41.6 554.845 38.016V22.272H548.829V14.912H554.845V4.352H565.085V14.912H573.405V22.272H565.085V37.312C565.085 38.6347 565.426 39.5947 566.109 40.192C566.834 40.7467 567.986 41.024 569.565 41.024C570.674 41.024 571.997 40.8107 573.533 40.384V48C571.656 48.5547 569.501 48.832 567.069 48.832ZM588.561 48H578.321V14.912H588.561V48ZM588.753 10.944H578.129V0.639999H588.753V10.944ZM639.936 48H605.888V2.56H639.424V11.328H616.512V20.608H637.056V29.12H616.512V39.232H639.936V48ZM653.328 48H642.448L654.224 31.04L643.024 14.912H654.608L660.432 23.936L666.32 14.912H677.2L666.064 30.912L677.904 48H666.32L659.856 38.016L653.328 48ZM681.383 58.88V14.912H690.919L691.239 20.16C692.007 18.4533 693.287 17.024 695.079 15.872C696.871 14.6773 699.004 14.08 701.479 14.08C704.38 14.08 706.919 14.8267 709.095 16.32C711.271 17.7707 712.935 19.7973 714.087 22.4C715.239 24.96 715.815 27.8613 715.815 31.104V31.744C715.815 35.0293 715.239 37.9733 714.087 40.576C712.935 43.136 711.271 45.1627 709.095 46.656C706.962 48.1067 704.444 48.832 701.543 48.832C699.324 48.832 697.34 48.3413 695.591 47.36C693.884 46.3787 692.583 45.0773 691.687 43.456V58.88H681.383ZM698.407 41.088C703.1 41.088 705.447 37.9733 705.447 31.744V31.104C705.447 24.8747 703.1 21.76 698.407 21.76C693.714 21.76 691.367 24.8747 691.367 31.104V31.744C691.367 37.9733 693.714 41.088 698.407 41.088ZM737.142 48.832C733.558 48.832 730.443 48.128 727.798 46.72C725.195 45.312 723.19 43.328 721.782 40.768C720.374 38.208 719.67 35.2 719.67 31.744V31.104C719.67 27.7333 720.374 24.768 721.782 22.208C723.233 19.6053 725.281 17.6 727.926 16.192C730.571 14.784 733.643 14.08 737.142 14.08C740.897 14.08 744.054 14.912 746.614 16.576C749.217 18.1973 751.115 20.5013 752.31 23.488C753.505 26.432 753.974 29.8667 753.718 33.792H729.846C730.059 36.3093 730.763 38.1867 731.958 39.424C733.153 40.6613 734.859 41.28 737.078 41.28C738.785 41.28 740.171 40.9173 741.238 40.192C742.347 39.4667 743.094 38.528 743.478 37.376H753.526C752.715 40.9173 750.859 43.712 747.958 45.76C745.099 47.808 741.494 48.832 737.142 48.832ZM743.414 27.84C743.286 25.8773 742.689 24.3627 741.622 23.296C740.555 22.1867 739.019 21.632 737.014 21.632C734.966 21.632 733.366 22.144 732.214 23.168C731.062 24.1493 730.315 25.7067 729.974 27.84H743.414ZM758.758 48V14.912H768.55L768.742 21.376C769.595 19.2853 770.833 17.6 772.454 16.32C774.075 14.9973 776.059 14.336 778.406 14.336C779.217 14.336 779.899 14.4 780.454 14.528V24.32C779.515 24.2347 778.619 24.192 777.766 24.192C771.921 24.192 768.998 26.9867 768.998 32.576V48H758.758ZM794.936 48H784.696V14.912H794.936V48ZM795.128 10.944H784.504V0.639999H795.128V10.944ZM817.33 48.832C813.746 48.832 810.631 48.128 807.986 46.72C805.383 45.312 803.378 43.328 801.97 40.768C800.562 38.208 799.858 35.2 799.858 31.744V31.104C799.858 27.7333 800.562 24.768 801.97 22.208C803.42 19.6053 805.468 17.6 808.114 16.192C810.759 14.784 813.831 14.08 817.33 14.08C821.084 14.08 824.242 14.912 826.802 16.576C829.404 18.1973 831.303 20.5013 832.498 23.488C833.692 26.432 834.162 29.8667 833.906 33.792H810.034C810.247 36.3093 810.951 38.1867 812.146 39.424C813.34 40.6613 815.047 41.28 817.266 41.28C818.972 41.28 820.359 40.9173 821.426 40.192C822.535 39.4667 823.282 38.528 823.666 37.376H833.714C832.903 40.9173 831.047 43.712 828.146 45.76C825.287 47.808 821.682 48.832 817.33 48.832ZM823.602 27.84C823.474 25.8773 822.876 24.3627 821.81 23.296C820.743 22.1867 819.207 21.632 817.202 21.632C815.154 21.632 813.554 22.144 812.402 23.168C811.25 24.1493 810.503 25.7067 810.162 27.84H823.602ZM838.946 48V14.912H848.738L848.994 19.968C849.89 18.2613 851.212 16.8533 852.962 15.744C854.711 14.6347 856.866 14.08 859.426 14.08C863.436 14.08 866.359 15.2107 868.194 17.472C870.028 19.7333 870.946 22.8267 870.946 26.752V48H860.706V29.376C860.706 27.0293 860.279 25.2587 859.426 24.064C858.615 22.8693 857.271 22.272 855.394 22.272C853.516 22.272 852.002 22.9333 850.85 24.256C849.74 25.5787 849.186 27.4347 849.186 29.824V48H838.946ZM892.503 48.832C889.048 48.832 886.04 48.128 883.48 46.72C880.962 45.312 879.021 43.328 877.656 40.768C876.29 38.1653 875.608 35.1573 875.608 31.744V31.104C875.608 27.6907 876.29 24.704 877.656 22.144C879.021 19.584 880.984 17.6 883.544 16.192C886.104 14.784 889.09 14.08 892.503 14.08C896.941 14.08 900.568 15.296 903.384 17.728C906.2 20.16 907.842 23.5093 908.312 27.776H898.264C897.752 23.8507 895.789 21.888 892.376 21.888C888.109 21.888 885.976 24.96 885.976 31.104V31.744C885.976 37.9307 888.109 41.024 892.376 41.024C895.789 41.024 897.752 39.0827 898.264 35.2H908.312C907.842 39.4667 906.2 42.816 903.384 45.248C900.568 47.6373 896.941 48.832 892.503 48.832ZM928.955 48.832C925.371 48.832 922.256 48.128 919.611 46.72C917.008 45.312 915.003 43.328 913.595 40.768C912.187 38.208 911.483 35.2 911.483 31.744V31.104C911.483 27.7333 912.187 24.768 913.595 22.208C915.045 19.6053 917.093 17.6 919.739 16.192C922.384 14.784 925.456 14.08 928.955 14.08C932.709 14.08 935.867 14.912 938.427 16.576C941.029 18.1973 942.928 20.5013 944.123 23.488C945.317 26.432 945.787 29.8667 945.531 33.792H921.659C921.872 36.3093 922.576 38.1867 923.771 39.424C924.965 40.6613 926.672 41.28 928.891 41.28C930.597 41.28 931.984 40.9173 933.051 40.192C934.16 39.4667 934.907 38.528 935.291 37.376H945.339C944.528 40.9173 942.672 43.712 939.771 45.76C936.912 47.808 933.307 48.832 928.955 48.832ZM935.227 27.84C935.099 25.8773 934.501 24.3627 933.435 23.296C932.368 22.1867 930.832 21.632 928.827 21.632C926.779 21.632 925.179 22.144 924.027 23.168C922.875 24.1493 922.128 25.7067 921.787 27.84H935.227ZM948.669 54.144C950.589 54.144 951.933 53.76 952.701 52.992C953.469 52.2667 953.853 50.9867 953.853 49.152V48H949.885V38.528H959.613V48.064C959.613 51.8613 958.696 54.656 956.861 56.448C955.069 58.24 952.338 59.136 948.669 59.136V54.144ZM989.217 48.832C986.145 48.832 983.606 47.8933 981.601 46.016C979.638 44.1387 978.657 41.7493 978.657 38.848C978.657 35.9467 979.574 33.6427 981.409 31.936C983.286 30.2293 985.953 29.184 989.409 28.8L999.585 27.648V25.152C999.585 24.256 999.286 23.552 998.689 23.04C998.134 22.528 997.302 22.272 996.193 22.272C994.955 22.272 994.017 22.5493 993.377 23.104C992.737 23.616 992.374 24.3627 992.289 25.344H980.065C980.107 21.8027 981.622 19.0293 984.609 17.024C987.595 14.976 991.563 13.952 996.513 13.952C999.67 13.952 1002.44 14.4 1004.83 15.296C1007.26 16.192 1009.14 17.472 1010.46 19.136C1011.79 20.8 1012.45 22.7413 1012.45 24.96V48H1000.16L999.777 43.328C998.795 45.12 997.409 46.4853 995.617 47.424C993.867 48.3627 991.734 48.832 989.217 48.832ZM994.401 40.64C995.894 40.64 997.131 40.2347 998.113 39.424C999.094 38.5707 999.585 37.44 999.585 36.032V34.176L994.273 34.816C993.206 34.944 992.395 35.2853 991.841 35.84C991.329 36.352 991.073 36.992 991.073 37.76C991.073 38.656 991.35 39.36 991.905 39.872C992.459 40.384 993.291 40.64 994.401 40.64ZM1017.37 58.88V14.784H1029.34L1029.72 20.288C1030.32 18.5387 1031.45 17.0453 1033.12 15.808C1034.78 14.5707 1036.81 13.952 1039.2 13.952C1042.18 13.952 1044.79 14.6987 1047 16.192C1049.22 17.6853 1050.91 19.7547 1052.06 22.4C1053.26 25.0027 1053.85 27.9467 1053.85 31.232V31.616C1053.85 34.8587 1053.28 37.7813 1052.12 40.384C1051.02 42.9867 1049.39 45.056 1047.26 46.592C1045.13 48.0853 1042.59 48.832 1039.64 48.832C1037.51 48.832 1035.63 48.384 1034.01 47.488C1032.39 46.5493 1031.13 45.2907 1030.24 43.712V58.88H1017.37ZM1035.42 39.424C1037.38 39.424 1038.79 38.8053 1039.64 37.568C1040.5 36.288 1040.92 34.2827 1040.92 31.552V31.168C1040.92 28.4373 1040.5 26.4533 1039.64 25.216C1038.79 23.936 1037.38 23.296 1035.42 23.296C1033.46 23.296 1032.05 23.936 1031.2 25.216C1030.34 26.4533 1029.92 28.4373 1029.92 31.168V31.552C1029.92 34.2827 1030.34 36.288 1031.2 37.568C1032.05 38.8053 1033.46 39.424 1035.42 39.424ZM1058.06 48V14.784H1070.22L1070.48 21.376C1071.24 19.2853 1072.4 17.5787 1073.93 16.256C1075.51 14.8907 1077.49 14.208 1079.88 14.208C1080.74 14.208 1081.48 14.272 1082.12 14.4V26.56C1081.19 26.432 1080.18 26.368 1079.12 26.368C1076.21 26.368 1074.1 26.9867 1072.78 28.224C1071.5 29.4187 1070.86 31.2107 1070.86 33.6V48H1058.06ZM1102.47 48.832C1098.88 48.832 1095.7 48.1067 1092.93 46.656C1090.2 45.1627 1088.07 43.1147 1086.53 40.512C1085.04 37.8667 1084.29 34.9013 1084.29 31.616V31.168C1084.29 27.8827 1085.04 24.9387 1086.53 22.336C1088.07 19.6907 1090.2 17.6427 1092.93 16.192C1095.7 14.6987 1098.88 13.952 1102.47 13.952C1106.05 13.952 1109.21 14.6987 1111.94 16.192C1114.71 17.6427 1116.84 19.6907 1118.34 22.336C1119.87 24.9387 1120.64 27.8827 1120.64 31.168V31.616C1120.64 34.9013 1119.87 37.8667 1118.34 40.512C1116.84 43.1147 1114.71 45.1627 1111.94 46.656C1109.21 48.1067 1106.05 48.832 1102.47 48.832ZM1102.47 39.36C1104.39 39.36 1105.73 38.7413 1106.5 37.504C1107.31 36.2667 1107.71 34.304 1107.71 31.616V31.168C1107.71 28.48 1107.31 26.5173 1106.5 25.28C1105.73 24.0427 1104.39 23.424 1102.47 23.424C1100.55 23.424 1099.18 24.0427 1098.37 25.28C1097.6 26.5173 1097.22 28.48 1097.22 31.168V31.616C1097.22 34.304 1097.6 36.2667 1098.37 37.504C1099.18 38.7413 1100.55 39.36 1102.47 39.36ZM1145.8 48H1131.72L1120.01 14.784H1133.51L1139.08 35.072L1144.65 14.784H1157.45L1145.8 48ZM1174.97 48.832C1171.38 48.832 1168.2 48.1067 1165.43 46.656C1162.7 45.1627 1160.57 43.1147 1159.03 40.512C1157.54 37.8667 1156.79 34.9013 1156.79 31.616V31.168C1156.79 27.8827 1157.54 24.9387 1159.03 22.336C1160.57 19.6907 1162.7 17.6427 1165.43 16.192C1168.2 14.6987 1171.38 13.952 1174.97 13.952C1178.55 13.952 1181.71 14.6987 1184.44 16.192C1187.21 17.6427 1189.34 19.6907 1190.84 22.336C1192.37 24.9387 1193.14 27.8827 1193.14 31.168V31.616C1193.14 34.9013 1192.37 37.8667 1190.84 40.512C1189.34 43.1147 1187.21 45.1627 1184.44 46.656C1181.71 48.1067 1178.55 48.832 1174.97 48.832ZM1174.97 39.36C1176.89 39.36 1178.23 38.7413 1179 37.504C1179.81 36.2667 1180.21 34.304 1180.21 31.616V31.168C1180.21 28.48 1179.81 26.5173 1179 25.28C1178.23 24.0427 1176.89 23.424 1174.97 23.424C1173.05 23.424 1171.68 24.0427 1170.87 25.28C1170.1 26.5173 1169.72 28.48 1169.72 31.168V31.616C1169.72 34.304 1170.1 36.2667 1170.87 37.504C1171.68 38.7413 1173.05 39.36 1174.97 39.36ZM1208.83 48.832C1204.9 48.832 1201.98 47.7013 1200.06 45.44C1198.14 43.136 1197.18 39.9147 1197.18 35.776V14.784H1210.04V33.28C1210.04 36.9493 1211.32 38.784 1213.88 38.784C1215.25 38.784 1216.34 38.2933 1217.15 37.312C1217.96 36.288 1218.36 34.688 1218.36 32.512V14.784H1231.29V48H1219L1218.68 43.328C1217.75 44.864 1216.42 46.1653 1214.72 47.232C1213.01 48.2987 1211.05 48.832 1208.83 48.832ZM1247.44 33.92H1239.38L1236.63 12.928V2.56H1250.2V12.928L1247.44 33.92ZM1249.36 48H1237.46V37.12H1249.36V48Z" fill="#004FE0"/>
</svg>
