<svg width="645" height="137" viewBox="0 0 645 137" fill="none" xmlns="http://www.w3.org/2000/svg">
<path d="M69.2508 26.24C69.2508 30.6773 68.4188 34.5813 66.7548 37.952C65.0908 41.3227 62.7441 43.9467 59.7148 45.824L64.8988 53.44H60.2908L56.2588 47.488C53.9121 48.3413 51.3734 48.768 48.6428 48.768C44.5041 48.768 40.8774 47.8293 37.7628 45.952C34.6481 44.0747 32.2374 41.4507 30.5308 38.08C28.8241 34.6667 27.9708 30.72 27.9708 26.24V24.32C27.9708 19.84 28.8241 15.9147 30.5308 12.544C32.2374 9.13067 34.6481 6.48533 37.7628 4.608C40.8774 2.73066 44.5041 1.792 48.6428 1.792C52.7814 1.792 56.4081 2.73066 59.5228 4.608C62.6374 6.48533 65.0268 9.13067 66.6908 12.544C68.3974 15.9147 69.2508 19.84 69.2508 24.32V26.24ZM57.5387 42.624C59.9708 41.088 61.8268 38.912 63.1068 36.096C64.4294 33.2373 65.0908 29.952 65.0908 26.24V24.32C65.0908 20.5653 64.4294 17.28 63.1068 14.464C61.7841 11.6053 59.8854 9.408 57.4108 7.872C54.9361 6.29333 52.0134 5.504 48.6428 5.504C45.2721 5.504 42.3494 6.29333 39.8748 7.872C37.4001 9.408 35.5014 11.6053 34.1788 14.464C32.8561 17.28 32.1948 20.5653 32.1948 24.32V26.24C32.1948 29.9947 32.8561 33.3013 34.1788 36.16C35.5014 38.976 37.4001 41.1733 39.8748 42.752C42.3494 44.288 45.2721 45.056 48.6428 45.056C50.6481 45.056 52.4614 44.7787 54.0828 44.224L48.0668 35.392H52.6748L57.5387 42.624ZM87.1993 48.768C83.5299 48.768 80.7353 47.7013 78.8153 45.568C76.8953 43.392 75.9353 40.3413 75.9353 36.416V15.232H79.7753V35.712C79.7753 42.1547 82.5699 45.376 88.1593 45.376C91.1886 45.376 93.5353 44.3307 95.1993 42.24C96.9059 40.1067 97.7593 37.2907 97.7593 33.792V15.232H101.599V48H97.8233L97.7593 42.112C96.8633 44.1173 95.4766 45.7387 93.5993 46.976C91.7646 48.1707 89.6313 48.768 87.1993 48.768ZM123.383 48.768C120.225 48.768 117.495 48.0853 115.191 46.72C112.929 45.312 111.201 43.3707 110.007 40.896C108.812 38.4213 108.215 35.5413 108.215 32.256V30.976C108.215 27.6907 108.812 24.8107 110.007 22.336C111.244 19.8187 112.993 17.8773 115.255 16.512C117.559 15.1467 120.268 14.464 123.383 14.464C128.247 14.464 131.895 16.0427 134.327 19.2C136.801 22.3147 137.932 26.6667 137.719 32.256H112.183V32.512C112.268 36.608 113.271 39.7867 115.191 42.048C117.153 44.2667 119.884 45.376 123.383 45.376C126.156 45.376 128.396 44.736 130.103 43.456C131.809 42.176 132.961 40.3627 133.559 38.016H137.463C136.695 41.3867 135.073 44.032 132.599 45.952C130.167 47.8293 127.095 48.768 123.383 48.768ZM133.687 28.992V28.928C133.473 25.3867 132.492 22.656 130.743 20.736C128.993 18.816 126.54 17.856 123.383 17.856C120.097 17.856 117.495 18.8373 115.575 20.8C113.655 22.72 112.567 25.4507 112.311 28.992H133.687ZM144.129 48V15.232H147.841L147.905 21.056C148.758 19.0933 150.059 17.5147 151.809 16.32C153.601 15.0827 155.777 14.464 158.337 14.464C160.897 14.464 163.03 15.104 164.737 16.384C166.443 17.6213 167.638 19.3707 168.321 21.632C169.345 19.456 170.774 17.728 172.609 16.448C174.486 15.1253 176.726 14.464 179.329 14.464C182.87 14.464 185.558 15.5307 187.393 17.664C189.27 19.7547 190.209 22.7413 190.209 26.624V48H186.369V27.392C186.369 24.2773 185.686 21.9093 184.321 20.288C182.998 18.6667 181.035 17.856 178.433 17.856C175.446 17.856 173.121 18.88 171.457 20.928C169.835 22.976 169.025 25.7707 169.025 29.312V48H165.185V27.456C165.185 21.056 162.603 17.856 157.441 17.856C154.454 17.856 152.129 18.9013 150.465 20.992C148.801 23.04 147.969 25.856 147.969 29.44V48H144.129ZM223.441 48.768C220.326 48.768 217.638 48.0853 215.377 46.72C213.158 45.312 211.451 43.3707 210.257 40.896C209.062 38.4213 208.465 35.5413 208.465 32.256V30.976C208.465 25.984 209.787 21.9947 212.433 19.008C215.121 15.9787 218.811 14.464 223.505 14.464C227.302 14.464 230.374 15.488 232.721 17.536C235.11 19.5413 236.539 22.2507 237.009 25.664H233.169C232.699 23.232 231.633 21.3333 229.969 19.968C228.305 18.56 226.129 17.856 223.441 17.856C219.942 17.856 217.233 19.008 215.313 21.312C213.393 23.616 212.433 26.8373 212.433 30.976V32.256C212.433 36.3947 213.393 39.616 215.313 41.92C217.233 44.224 219.942 45.376 223.441 45.376C226.171 45.376 228.369 44.672 230.033 43.264C231.739 41.8133 232.849 39.8293 233.361 37.312H237.265C236.625 40.8533 235.089 43.648 232.657 45.696C230.267 47.744 227.195 48.768 223.441 48.768ZM256.884 48.768C253.812 48.768 251.124 48.1067 248.82 46.784C246.516 45.4187 244.746 43.4987 243.508 41.024C242.271 38.5067 241.652 35.584 241.652 32.256V30.976C241.652 27.648 242.271 24.7467 243.508 22.272C244.746 19.7547 246.516 17.8347 248.82 16.512C251.124 15.1467 253.812 14.464 256.884 14.464C259.956 14.464 262.623 15.1467 264.884 16.512C267.188 17.8347 268.959 19.7547 270.196 22.272C271.434 24.7467 272.052 27.648 272.052 30.976V32.256C272.052 35.584 271.434 38.5067 270.196 41.024C268.959 43.4987 267.188 45.4187 264.884 46.784C262.623 48.1067 259.956 48.768 256.884 48.768ZM256.884 45.376C260.468 45.376 263.22 44.224 265.14 41.92C267.103 39.616 268.084 36.3947 268.084 32.256V30.976C268.084 26.8373 267.103 23.616 265.14 21.312C263.22 19.008 260.468 17.856 256.884 17.856C253.3 17.856 250.527 19.008 248.564 21.312C246.602 23.616 245.62 26.8373 245.62 30.976V32.256C245.62 36.3947 246.602 39.616 248.564 41.92C250.527 44.224 253.3 45.376 256.884 45.376ZM278.691 48V15.232H282.403L282.467 21.056C283.321 19.0933 284.622 17.5147 286.371 16.32C288.163 15.0827 290.339 14.464 292.899 14.464C295.459 14.464 297.593 15.104 299.299 16.384C301.006 17.6213 302.201 19.3707 302.883 21.632C303.907 19.456 305.337 17.728 307.171 16.448C309.049 15.1253 311.289 14.464 313.891 14.464C317.433 14.464 320.121 15.5307 321.955 17.664C323.833 19.7547 324.771 22.7413 324.771 26.624V48H320.931V27.392C320.931 24.2773 320.249 21.9093 318.883 20.288C317.561 18.6667 315.598 17.856 312.995 17.856C310.009 17.856 307.683 18.88 306.019 20.928C304.398 22.976 303.587 25.7707 303.587 29.312V48H299.747V27.456C299.747 21.056 297.166 17.856 292.003 17.856C289.017 17.856 286.691 18.9013 285.027 20.992C283.363 23.04 282.531 25.856 282.531 29.44V48H278.691ZM332.754 58.88V15.232H336.338L336.466 21.888C337.319 19.84 338.748 18.0907 340.754 16.64C342.759 15.1893 345.276 14.464 348.306 14.464C351.122 14.464 353.596 15.1467 355.73 16.512C357.863 17.8773 359.506 19.8187 360.658 22.336C361.81 24.8107 362.386 27.6907 362.386 30.976V32.256C362.386 35.5413 361.81 38.4427 360.658 40.96C359.506 43.4347 357.863 45.3547 355.73 46.72C353.596 48.0853 351.1 48.768 348.242 48.768C345.34 48.768 342.908 48.1067 340.946 46.784C338.983 45.4187 337.532 43.7333 336.594 41.728V58.88H332.754ZM347.666 45.376C351.079 45.376 353.724 44.224 355.602 41.92C357.479 39.5733 358.418 36.352 358.418 32.256V30.976C358.418 26.8373 357.479 23.616 355.602 21.312C353.767 19.008 351.143 17.856 347.73 17.856C344.146 17.856 341.372 19.008 339.41 21.312C337.447 23.616 336.466 26.8373 336.466 30.976V32.256C336.466 36.352 337.447 39.5733 339.41 41.92C341.372 44.224 344.124 45.376 347.666 45.376ZM369.066 48V15.232H372.778L372.842 21.888C373.738 19.5413 375.104 17.728 376.938 16.448C378.773 15.1253 380.885 14.464 383.274 14.464C383.914 14.464 384.426 14.5067 384.81 14.592V18.432C384.384 18.3893 383.85 18.368 383.21 18.368C380.096 18.368 377.6 19.3707 375.722 21.376C373.845 23.3387 372.906 26.1973 372.906 29.952V48H369.066ZM402.384 48.768C399.312 48.768 396.624 48.1067 394.32 46.784C392.016 45.4187 390.246 43.4987 389.008 41.024C387.771 38.5067 387.152 35.584 387.152 32.256V30.976C387.152 27.648 387.771 24.7467 389.008 22.272C390.246 19.7547 392.016 17.8347 394.32 16.512C396.624 15.1467 399.312 14.464 402.384 14.464C405.456 14.464 408.123 15.1467 410.384 16.512C412.688 17.8347 414.459 19.7547 415.696 22.272C416.934 24.7467 417.552 27.648 417.552 30.976V32.256C417.552 35.584 416.934 38.5067 415.696 41.024C414.459 43.4987 412.688 45.4187 410.384 46.784C408.123 48.1067 405.456 48.768 402.384 48.768ZM402.384 45.376C405.968 45.376 408.72 44.224 410.64 41.92C412.603 39.616 413.584 36.3947 413.584 32.256V30.976C413.584 26.8373 412.603 23.616 410.64 21.312C408.72 19.008 405.968 17.856 402.384 17.856C398.8 17.856 396.027 19.008 394.064 21.312C392.102 23.616 391.12 26.8373 391.12 30.976V32.256C391.12 36.3947 392.102 39.616 394.064 41.92C396.027 44.224 398.8 45.376 402.384 45.376ZM434.824 48.768C431.155 48.768 428.36 47.7013 426.44 45.568C424.52 43.392 423.56 40.3413 423.56 36.416V15.232H427.4V35.712C427.4 42.1547 430.195 45.376 435.784 45.376C438.814 45.376 441.16 44.3307 442.824 42.24C444.531 40.1067 445.384 37.2907 445.384 33.792V15.232H449.224V48H445.448L445.384 42.112C444.488 44.1173 443.102 45.7387 441.224 46.976C439.39 48.1707 437.256 48.768 434.824 48.768ZM478.849 48H468.481V2.56H483.841L493.825 34.304L503.873 2.56H518.401V48H508.225V15.104L497.793 48H489.409L478.849 14.976V48ZM535.866 48.832C531.983 48.832 529.082 47.7013 527.162 45.44C525.284 43.1787 524.346 40.0213 524.346 35.968V14.912H534.65V33.984C534.65 38.4213 536.335 40.64 539.706 40.64C541.54 40.64 542.991 39.9787 544.058 38.656C545.124 37.3333 545.658 35.4133 545.658 32.896V14.912H555.962V48H546.106L545.85 43.264C544.826 44.8427 543.46 46.1653 541.754 47.232C540.047 48.2987 538.084 48.832 535.866 48.832ZM572.217 48H561.977V0.639999H572.217V48ZM594.288 48.832C590.149 48.832 587.077 47.936 585.072 46.144C583.066 44.3093 582.064 41.6 582.064 38.016V22.272H576.048V14.912H582.064V4.352H592.304V14.912H600.624V22.272H592.304V37.312C592.304 38.6347 592.645 39.5947 593.328 40.192C594.053 40.7467 595.205 41.024 596.784 41.024C597.893 41.024 599.216 40.8107 600.752 40.384V48C598.874 48.5547 596.72 48.832 594.288 48.832ZM615.779 48H605.539V14.912H615.779V48ZM615.971 10.944H605.347V0.639999H615.971V10.944ZM34.123 125H0.075V79.56H33.611V88.328H10.699V97.608H31.243V106.12H10.699V116.232H34.123V125ZM47.5155 125H36.6355L48.4115 108.04L37.2115 91.912H48.7955L54.6195 100.936L60.5075 91.912H71.3875L60.2515 107.912L72.0915 125H60.5075L54.0435 115.016L47.5155 125ZM75.5705 135.88V91.912H85.1065L85.4265 97.16C86.1945 95.4533 87.4745 94.024 89.2665 92.872C91.0585 91.6773 93.1918 91.08 95.6665 91.08C98.5678 91.08 101.107 91.8267 103.283 93.32C105.459 94.7707 107.123 96.7973 108.275 99.4C109.427 101.96 110.003 104.861 110.003 108.104V108.744C110.003 112.029 109.427 114.973 108.275 117.576C107.123 120.136 105.459 122.163 103.283 123.656C101.149 125.107 98.6318 125.832 95.7305 125.832C93.5118 125.832 91.5278 125.341 89.7785 124.36C88.0718 123.379 86.7705 122.077 85.8745 120.456V135.88H75.5705ZM92.5945 118.088C97.2878 118.088 99.6345 114.973 99.6345 108.744V108.104C99.6345 101.875 97.2878 98.76 92.5945 98.76C87.9012 98.76 85.5545 101.875 85.5545 108.104V108.744C85.5545 114.973 87.9012 118.088 92.5945 118.088ZM131.33 125.832C127.746 125.832 124.631 125.128 121.986 123.72C119.383 122.312 117.378 120.328 115.97 117.768C114.562 115.208 113.858 112.2 113.858 108.744V108.104C113.858 104.733 114.562 101.768 115.97 99.208C117.42 96.6053 119.468 94.6 122.114 93.192C124.759 91.784 127.831 91.08 131.33 91.08C135.084 91.08 138.242 91.912 140.802 93.576C143.404 95.1973 145.303 97.5013 146.498 100.488C147.692 103.432 148.162 106.867 147.906 110.792H124.034C124.247 113.309 124.951 115.187 126.146 116.424C127.34 117.661 129.047 118.28 131.266 118.28C132.972 118.28 134.359 117.917 135.426 117.192C136.535 116.467 137.282 115.528 137.666 114.376H147.714C146.903 117.917 145.047 120.712 142.146 122.76C139.287 124.808 135.682 125.832 131.33 125.832ZM137.602 104.84C137.474 102.877 136.876 101.363 135.81 100.296C134.743 99.1867 133.207 98.632 131.202 98.632C129.154 98.632 127.554 99.144 126.402 100.168C125.25 101.149 124.503 102.707 124.162 104.84H137.602ZM152.946 125V91.912H162.738L162.93 98.376C163.783 96.2853 165.02 94.6 166.642 93.32C168.263 91.9973 170.247 91.336 172.594 91.336C173.404 91.336 174.087 91.4 174.642 91.528V101.32C173.703 101.235 172.807 101.192 171.954 101.192C166.108 101.192 163.186 103.987 163.186 109.576V125H152.946ZM189.123 125H178.883V91.912H189.123V125ZM189.315 87.944H178.691V77.64H189.315V87.944ZM211.517 125.832C207.933 125.832 204.818 125.128 202.173 123.72C199.57 122.312 197.565 120.328 196.157 117.768C194.749 115.208 194.045 112.2 194.045 108.744V108.104C194.045 104.733 194.749 101.768 196.157 99.208C197.608 96.6053 199.656 94.6 202.301 93.192C204.946 91.784 208.018 91.08 211.517 91.08C215.272 91.08 218.429 91.912 220.989 93.576C223.592 95.1973 225.49 97.5013 226.685 100.488C227.88 103.432 228.349 106.867 228.093 110.792H204.221C204.434 113.309 205.138 115.187 206.333 116.424C207.528 117.661 209.234 118.28 211.453 118.28C213.16 118.28 214.546 117.917 215.613 117.192C216.722 116.467 217.469 115.528 217.853 114.376H227.901C227.09 117.917 225.234 120.712 222.333 122.76C219.474 124.808 215.869 125.832 211.517 125.832ZM217.789 104.84C217.661 102.877 217.064 101.363 215.997 100.296C214.93 99.1867 213.394 98.632 211.389 98.632C209.341 98.632 207.741 99.144 206.589 100.168C205.437 101.149 204.69 102.707 204.349 104.84H217.789ZM233.133 125V91.912H242.925L243.181 96.968C244.077 95.2613 245.4 93.8533 247.149 92.744C248.898 91.6347 251.053 91.08 253.613 91.08C257.624 91.08 260.546 92.2107 262.381 94.472C264.216 96.7333 265.133 99.8267 265.133 103.752V125H254.893V106.376C254.893 104.029 254.466 102.259 253.613 101.064C252.802 99.8693 251.458 99.272 249.581 99.272C247.704 99.272 246.189 99.9333 245.037 101.256C243.928 102.579 243.373 104.435 243.373 106.824V125H233.133ZM286.691 125.832C283.235 125.832 280.227 125.128 277.667 123.72C275.15 122.312 273.208 120.328 271.843 117.768C270.478 115.165 269.795 112.157 269.795 108.744V108.104C269.795 104.691 270.478 101.704 271.843 99.144C273.208 96.584 275.171 94.6 277.731 93.192C280.291 91.784 283.278 91.08 286.691 91.08C291.128 91.08 294.755 92.296 297.571 94.728C300.387 97.16 302.03 100.509 302.499 104.776H292.451C291.939 100.851 289.976 98.888 286.563 98.888C282.296 98.888 280.163 101.96 280.163 108.104V108.744C280.163 114.931 282.296 118.024 286.563 118.024C289.976 118.024 291.939 116.083 292.451 112.2H302.499C302.03 116.467 300.387 119.816 297.571 122.248C294.755 124.637 291.128 125.832 286.691 125.832ZM323.142 125.832C319.558 125.832 316.443 125.128 313.798 123.72C311.195 122.312 309.19 120.328 307.782 117.768C306.374 115.208 305.67 112.2 305.67 108.744V108.104C305.67 104.733 306.374 101.768 307.782 99.208C309.233 96.6053 311.281 94.6 313.926 93.192C316.571 91.784 319.643 91.08 323.142 91.08C326.897 91.08 330.054 91.912 332.614 93.576C335.217 95.1973 337.115 97.5013 338.31 100.488C339.505 103.432 339.974 106.867 339.718 110.792H315.846C316.059 113.309 316.763 115.187 317.958 116.424C319.153 117.661 320.859 118.28 323.078 118.28C324.785 118.28 326.171 117.917 327.238 117.192C328.347 116.467 329.094 115.528 329.478 114.376H339.526C338.715 117.917 336.859 120.712 333.958 122.76C331.099 124.808 327.494 125.832 323.142 125.832ZM329.414 104.84C329.286 102.877 328.689 101.363 327.622 100.296C326.555 99.1867 325.019 98.632 323.014 98.632C320.966 98.632 319.366 99.144 318.214 100.168C317.062 101.149 316.315 102.707 315.974 104.84H329.414ZM342.857 131.144C344.777 131.144 346.121 130.76 346.889 129.992C347.657 129.267 348.041 127.987 348.041 126.152V125H344.073V115.528H353.801V125.064C353.801 128.861 352.883 131.656 351.049 133.448C349.257 135.24 346.526 136.136 342.857 136.136V131.144ZM383.404 125.832C380.332 125.832 377.793 124.893 375.788 123.016C373.825 121.139 372.844 118.749 372.844 115.848C372.844 112.947 373.761 110.643 375.596 108.936C377.473 107.229 380.14 106.184 383.596 105.8L393.772 104.648V102.152C393.772 101.256 393.473 100.552 392.876 100.04C392.321 99.528 391.489 99.272 390.38 99.272C389.143 99.272 388.204 99.5493 387.564 100.104C386.924 100.616 386.561 101.363 386.476 102.344H374.252C374.295 98.8027 375.809 96.0293 378.796 94.024C381.783 91.976 385.751 90.952 390.7 90.952C393.857 90.952 396.631 91.4 399.02 92.296C401.452 93.192 403.329 94.472 404.652 96.136C405.975 97.8 406.636 99.7413 406.636 101.96V125H394.348L393.964 120.328C392.983 122.12 391.596 123.485 389.804 124.424C388.055 125.363 385.921 125.832 383.404 125.832ZM388.588 117.64C390.081 117.64 391.319 117.235 392.3 116.424C393.281 115.571 393.772 114.44 393.772 113.032V111.176L388.46 111.816C387.393 111.944 386.583 112.285 386.028 112.84C385.516 113.352 385.26 113.992 385.26 114.76C385.26 115.656 385.537 116.36 386.092 116.872C386.647 117.384 387.479 117.64 388.588 117.64ZM411.56 135.88V91.784H423.528L423.912 97.288C424.509 95.5387 425.64 94.0453 427.304 92.808C428.968 91.5707 430.995 90.952 433.384 90.952C436.371 90.952 438.973 91.6987 441.192 93.192C443.411 94.6853 445.096 96.7547 446.248 99.4C447.443 102.003 448.04 104.947 448.04 108.232V108.616C448.04 111.859 447.464 114.781 446.312 117.384C445.203 119.987 443.581 122.056 441.448 123.592C439.315 125.085 436.776 125.832 433.832 125.832C431.699 125.832 429.821 125.384 428.2 124.488C426.579 123.549 425.32 122.291 424.424 120.712V135.88H411.56ZM429.608 116.424C431.571 116.424 432.979 115.805 433.832 114.568C434.685 113.288 435.112 111.283 435.112 108.552V108.168C435.112 105.437 434.685 103.453 433.832 102.216C432.979 100.936 431.571 100.296 429.608 100.296C427.645 100.296 426.237 100.936 425.384 102.216C424.531 103.453 424.104 105.437 424.104 108.168V108.552C424.104 111.283 424.531 113.288 425.384 114.568C426.237 115.805 427.645 116.424 429.608 116.424ZM452.248 125V91.784H464.408L464.664 98.376C465.432 96.2853 466.584 94.5787 468.12 93.256C469.698 91.8907 471.682 91.208 474.072 91.208C474.925 91.208 475.672 91.272 476.312 91.4V103.56C475.373 103.432 474.37 103.368 473.304 103.368C470.402 103.368 468.29 103.987 466.968 105.224C465.688 106.419 465.048 108.211 465.048 110.6V125H452.248ZM496.653 125.832C493.069 125.832 489.89 125.107 487.117 123.656C484.386 122.163 482.253 120.115 480.717 117.512C479.223 114.867 478.477 111.901 478.477 108.616V108.168C478.477 104.883 479.223 101.939 480.717 99.336C482.253 96.6907 484.386 94.6427 487.117 93.192C489.89 91.6987 493.069 90.952 496.653 90.952C500.237 90.952 503.394 91.6987 506.125 93.192C508.898 94.6427 511.031 96.6907 512.525 99.336C514.061 101.939 514.829 104.883 514.829 108.168V108.616C514.829 111.901 514.061 114.867 512.525 117.512C511.031 120.115 508.898 122.163 506.125 123.656C503.394 125.107 500.237 125.832 496.653 125.832ZM496.653 116.36C498.573 116.36 499.917 115.741 500.685 114.504C501.495 113.267 501.901 111.304 501.901 108.616V108.168C501.901 105.48 501.495 103.517 500.685 102.28C499.917 101.043 498.573 100.424 496.653 100.424C494.733 100.424 493.367 101.043 492.557 102.28C491.789 103.517 491.405 105.48 491.405 108.168V108.616C491.405 111.304 491.789 113.267 492.557 114.504C493.367 115.741 494.733 116.36 496.653 116.36ZM539.986 125H525.906L514.194 91.784H527.698L533.266 112.072L538.834 91.784H551.634L539.986 125ZM569.153 125.832C565.569 125.832 562.39 125.107 559.617 123.656C556.886 122.163 554.753 120.115 553.217 117.512C551.723 114.867 550.977 111.901 550.977 108.616V108.168C550.977 104.883 551.723 101.939 553.217 99.336C554.753 96.6907 556.886 94.6427 559.617 93.192C562.39 91.6987 565.569 90.952 569.153 90.952C572.737 90.952 575.894 91.6987 578.625 93.192C581.398 94.6427 583.531 96.6907 585.025 99.336C586.561 101.939 587.329 104.883 587.329 108.168V108.616C587.329 111.901 586.561 114.867 585.025 117.512C583.531 120.115 581.398 122.163 578.625 123.656C575.894 125.107 572.737 125.832 569.153 125.832ZM569.153 116.36C571.073 116.36 572.417 115.741 573.185 114.504C573.995 113.267 574.401 111.304 574.401 108.616V108.168C574.401 105.48 573.995 103.517 573.185 102.28C572.417 101.043 571.073 100.424 569.153 100.424C567.233 100.424 565.867 101.043 565.057 102.28C564.289 103.517 563.905 105.48 563.905 108.168V108.616C563.905 111.304 564.289 113.267 565.057 114.504C565.867 115.741 567.233 116.36 569.153 116.36ZM603.016 125.832C599.091 125.832 596.168 124.701 594.248 122.44C592.328 120.136 591.368 116.915 591.368 112.776V91.784H604.232V110.28C604.232 113.949 605.512 115.784 608.072 115.784C609.437 115.784 610.525 115.293 611.336 114.312C612.147 113.288 612.552 111.688 612.552 109.512V91.784H625.48V125H613.192L612.872 120.328C611.933 121.864 610.611 123.165 608.904 124.232C607.197 125.299 605.235 125.832 603.016 125.832ZM641.631 110.92H633.567L630.815 89.928V79.56H644.383V89.928L641.631 110.92ZM643.551 125H631.647V114.12H643.551V125Z" fill="black"/>
</svg>
